<?xml version="1.0" encoding="utf-8"?>
<!DOCTYPE svg PUBLIC "-//W3C//DTD SVG 20010904//EN" "http://www.w3.org/TR/2001/REC-SVG-20010904/DTD/svg10.dtd">
<svg version="1.0" xmlns="http://www.w3.org/2000/svg" width="602pt" height="173pt" viewBox="0 0 602 173" style="" preserveAspectRatio="xMidYMid meet">
<g fill="#FFFFFFFF" stroke="#FFFFFFFF">
<path d="M 1.000 86.500 L 1.000 172.000 301.000 172.000 L 601.000 172.000 601.000 86.500 L 601.000 1.000 301.000 1.000 L 1.000 1.000 1.000 86.500 M 97.332 60.302 C 99.350 61.843 101.677 64.408 102.501 66.002 C 104.758 70.366 104.411 77.094 101.725 81.080 L 99.450 84.456 102.552 87.180 C 110.645 94.285 108.545 107.578 98.617 112.086 C 95.128 113.671 91.945 113.959 77.750 113.978 L 61.000 114.000 61.000 85.414 L 61.000 56.828 77.331 57.164 C 93.446 57.496 93.709 57.537 97.332 60.302 M 166.774 75.004 C 170.781 77.447 170.650 77.447 171.290 75.000 C 171.705 73.411 172.654 73.000 175.906 73.000 L 180.000 73.000 180.000 93.500 L 180.000 114.000 175.500 114.000 C 171.690 114.000 171.000 113.698 171.000 112.030 C 171.000 110.162 170.812 110.188 167.360 112.530 C 164.507 114.466 162.446 115.000 157.821 115.000 C 145.282 115.000 137.000 106.715 137.000 94.172 C 137.000 84.757 141.141 77.743 148.662 74.417 C 153.289 72.371 162.971 72.685 166.774 75.004 M 256.389 75.489 L 260.058 77.979 261.004 75.489 C 261.765 73.487 262.640 73.000 265.475 73.000 L 269.000 73.000 269.000 93.500 L 269.000 114.000 265.117 114.000 C 262.056 114.000 261.121 113.570 260.703 111.972 C 260.185 109.990 260.087 110.001 256.447 112.472 C 253.503 114.469 251.483 115.000 246.821 115.000 C 234.151 115.000 226.000 106.621 226.000 93.597 C 226.000 86.882 226.947 84.269 231.091 79.550 C 235.281 74.776 239.108 73.182 246.610 73.082 C 251.557 73.016 253.420 73.474 256.389 75.489 M 285.000 75.020 L 285.000 77.041 288.960 75.020 C 294.520 72.184 302.636 72.290 307.102 75.258 C 308.971 76.500 311.513 79.520 312.750 81.970 C 314.759 85.947 315.000 87.899 315.000 100.212 L 315.000 114.000 310.000 114.000 L 305.000 114.000 305.000 100.189 C 305.000 87.863 304.790 86.151 303.044 84.278 C 300.099 81.116 295.662 80.511 291.254 82.670 C 285.814 85.333 285.032 87.726 285.015 101.750 L 285.000 114.000 280.500 114.000 L 276.000 114.000 276.000 94.167 C 276.000 83.258 276.300 74.033 276.667 73.667 C 277.033 73.300 279.058 73.000 281.167 73.000 C 284.346 73.000 285.000 73.345 285.000 75.020 M 396.300 74.614 C 402.422 77.702 408.993 85.585 407.482 88.029 C 407.152 88.563 405.193 89.000 403.129 89.000 C 400.176 89.000 398.934 88.402 397.300 86.192 C 394.516 82.426 388.095 80.484 383.473 82.009 C 371.782 85.867 372.157 102.811 384.003 106.001 C 388.735 107.275 395.029 105.130 397.464 101.415 C 398.691 99.542 399.925 99.000 402.964 99.000 C 407.711 99.000 408.539 100.066 406.630 103.721 C 399.763 116.868 379.734 118.993 370.321 107.573 C 365.115 101.257 363.871 94.452 366.539 86.890 C 369.620 78.158 377.252 73.060 387.300 73.022 C 390.690 73.009 394.429 73.670 396.300 74.614 M 333.000 67.000 L 333.000 73.000 339.000 73.000 L 345.000 73.000 345.000 76.950 L 345.000 80.900 339.250 81.200 L 333.500 81.500 333.217 92.217 C 332.956 102.054 333.109 103.109 335.083 105.083 C 336.789 106.789 338.033 107.125 341.116 106.711 L 345.000 106.190 345.000 110.595 L 345.000 115.000 339.250 114.996 C 332.214 114.992 327.498 112.435 325.440 107.510 C 324.469 105.187 324.000 100.306 324.000 92.532 L 324.000 81.000 320.440 81.000 C 316.937 81.000 316.884 80.939 317.190 77.250 C 317.473 73.826 317.783 73.473 320.750 73.187 L 324.000 72.873 324.000 66.937 L 324.000 61.000 328.500 61.000 L 333.000 61.000 333.000 67.000 M 122.000 75.030 C 122.000 77.055 122.006 77.055 124.829 74.968 C 126.992 73.369 128.816 72.950 132.570 73.188 C 137.849 73.523 138.789 74.719 137.576 79.552 C 137.063 81.598 136.543 81.859 133.994 81.349 C 129.602 80.470 124.995 82.767 123.377 86.640 C 122.467 88.819 122.000 94.013 122.000 101.968 L 122.000 114.000 117.500 114.000 L 113.000 114.000 113.000 93.500 L 113.000 73.000 117.500 73.000 C 121.355 73.000 122.000 73.291 122.000 75.030 M 198.007 83.750 C 200.360 89.663 203.987 98.910 206.067 104.300 L 209.849 114.099 204.836 113.800 L 199.822 113.500 192.069 94.000 C 187.805 83.275 184.497 74.163 184.717 73.750 C 184.938 73.338 187.055 73.000 189.423 73.000 L 193.728 73.000 198.007 83.750 M 360.000 93.500 L 360.000 114.000 355.500 114.000 L 351.000 114.000 351.000 94.167 C 351.000 83.258 351.300 74.033 351.667 73.667 C 352.033 73.300 354.058 73.000 356.167 73.000 L 360.000 73.000 360.000 93.500 M 226.000 74.356 C 226.000 75.102 223.787 81.289 221.083 88.106 L 216.166 100.500 211.583 100.805 C 208.766 100.992 207.000 100.691 207.000 100.024 C 207.000 99.427 209.306 93.102 212.125 85.969 L 217.251 73.000 221.625 73.000 C 224.641 73.000 226.000 73.421 226.000 74.356 M 531.000 108.800 C 531.000 112.756 530.498 116.102 529.800 116.800 C 527.428 119.172 521.000 117.678 521.000 114.755 C 521.000 114.290 522.575 114.205 524.500 114.566 C 526.691 114.977 528.000 114.831 528.000 114.175 C 528.000 113.598 526.572 112.986 524.827 112.813 C 521.030 112.438 519.335 108.878 520.942 104.651 C 521.828 102.322 522.500 102.000 526.475 102.000 L 531.000 102.000 531.000 108.800 M 528.794 88.145 C 528.458 96.309 527.065 98.116 522.384 96.462 C 518.098 94.947 518.020 92.725 522.280 93.525 C 524.413 93.925 526.033 93.756 526.444 93.090 C 526.874 92.395 526.018 92.000 524.082 92.000 C 519.726 92.000 517.282 88.148 519.002 83.994 C 520.116 81.307 520.696 81.000 524.665 81.000 L 529.088 81.000 528.794 88.145 M 414.000 62.000 C 415.100 63.100 416.000 64.900 416.000 66.000 C 416.000 70.587 409.476 73.614 405.760 70.750 C 403.173 68.756 403.077 64.066 405.571 61.571 C 407.736 59.407 411.603 59.603 414.000 62.000 M 517.443 104.223 C 519.538 107.214 519.403 109.597 517.000 112.000 C 514.598 114.402 511.712 114.569 509.571 112.429 C 507.716 110.573 507.488 104.912 509.200 103.200 C 511.189 101.211 515.728 101.774 517.443 104.223 M 498.800 103.200 C 500.683 105.083 500.241 110.472 498.040 112.464 C 493.492 116.580 487.492 111.056 489.981 105.045 C 491.013 102.555 491.822 102.000 494.421 102.000 C 496.170 102.000 498.140 102.540 498.800 103.200 M 479.800 82.200 C 481.938 84.338 481.256 89.786 478.635 91.504 C 473.598 94.804 468.214 89.216 470.852 83.426 C 471.699 81.567 472.733 81.000 475.279 81.000 C 477.105 81.000 479.140 81.540 479.800 82.200 M 457.000 78.500 C 457.000 79.553 455.936 80.000 453.427 80.000 C 450.564 80.000 449.919 80.348 450.185 81.750 C 450.403 82.903 451.623 83.607 453.758 83.813 C 458.115 84.235 457.907 86.000 453.500 86.000 C 450.667 86.000 450.000 86.381 450.000 88.000 C 450.000 89.619 450.667 90.000 453.500 90.000 C 455.425 90.000 457.000 90.450 457.000 91.000 C 457.000 91.550 454.750 92.000 452.000 92.000 L 447.000 92.000 447.000 84.500 L 447.000 77.000 452.000 77.000 C 455.778 77.000 457.000 77.367 457.000 78.500 M 448.800 103.200 C 449.460 103.860 450.000 105.435 450.000 106.700 C 450.000 108.662 449.486 109.000 446.500 109.000 C 444.575 109.000 443.000 109.500 443.000 110.111 C 443.000 110.846 444.222 110.993 446.605 110.546 C 449.353 110.031 450.106 110.182 449.773 111.185 C 449.533 111.908 448.149 112.920 446.699 113.432 C 444.635 114.162 443.618 113.964 442.030 112.527 C 439.762 110.474 439.285 105.115 441.200 103.200 C 442.747 101.653 447.253 101.653 448.800 103.200 M 467.000 99.937 C 467.000 101.391 467.810 101.951 470.250 102.187 C 473.471 102.497 473.503 102.553 473.803 108.351 C 474.034 112.809 473.796 114.100 472.803 113.774 C 472.086 113.538 471.357 111.580 471.183 109.423 C 470.572 101.860 467.046 102.630 467.015 110.333 C 467.005 112.949 466.603 114.035 465.750 113.753 C 464.931 113.482 464.399 110.697 464.208 105.670 C 463.965 99.300 464.177 98.000 465.458 98.000 C 466.317 98.000 467.000 98.858 467.000 99.937 M 537.289 106.002 L 538.204 109.500 539.709 105.750 C 540.537 103.688 541.841 102.000 542.607 102.000 C 543.373 102.000 544.000 102.215 544.000 102.477 C 544.000 104.167 538.705 116.568 537.715 117.197 C 534.485 119.250 532.504 116.815 535.575 114.569 C 536.996 113.530 536.947 112.882 535.076 107.958 C 532.584 101.403 532.609 101.778 534.687 102.178 C 535.647 102.363 536.768 104.011 537.289 106.002 M 360.000 65.557 L 360.000 70.115 355.750 69.807 C 351.521 69.501 351.499 69.479 351.193 65.250 L 350.885 61.000 355.443 61.000 L 360.000 61.000 360.000 65.557 M 486.555 104.362 C 487.380 107.652 486.706 113.500 485.500 113.500 C 484.950 113.500 484.275 111.475 484.000 109.000 C 483.654 105.889 483.037 104.500 482.000 104.500 C 480.963 104.500 480.346 105.889 480.000 109.000 C 479.315 115.169 477.566 114.240 477.200 107.512 L 476.900 102.000 481.431 102.000 C 485.359 102.000 486.041 102.314 486.555 104.362 M 515.542 82.069 C 515.906 82.656 516.270 85.132 516.351 87.569 C 516.547 93.415 514.230 93.588 513.807 87.759 C 513.583 84.665 513.027 83.427 511.750 83.185 C 510.290 82.908 510.000 83.611 510.000 87.427 C 510.000 91.333 509.708 92.000 508.000 92.000 C 506.242 92.000 506.000 91.333 506.000 86.500 L 506.000 81.000 510.441 81.000 C 512.884 81.000 515.179 81.481 515.542 82.069 M 461.020 103.524 C 462.752 105.611 461.359 106.705 458.914 105.178 C 456.377 103.594 455.000 104.443 455.000 107.590 C 455.000 110.499 457.389 111.752 459.537 109.969 C 461.323 108.487 462.488 109.285 461.666 111.427 C 460.720 113.894 456.210 114.500 453.960 112.464 C 451.759 110.472 451.317 105.083 453.200 103.200 C 454.886 101.514 459.511 101.706 461.020 103.524 M 440.000 99.500 C 440.000 100.416 439.067 101.000 437.605 101.000 C 435.327 101.000 435.216 101.299 435.313 107.181 C 435.379 111.200 434.992 113.503 434.207 113.764 C 433.346 114.051 433.000 112.281 433.000 107.583 C 433.000 101.228 432.914 101.000 430.500 101.000 C 428.944 101.000 428.000 100.433 428.000 99.500 C 428.000 98.333 429.333 98.000 434.000 98.000 C 438.667 98.000 440.000 98.333 440.000 99.500 M 492.438 84.813 L 493.553 88.126 494.841 84.563 C 496.276 80.595 499.631 79.374 498.448 83.250 C 495.332 93.450 492.885 94.380 489.897 86.500 C 487.608 80.463 487.622 80.780 489.661 81.177 C 490.575 81.355 491.825 82.991 492.438 84.813 M 462.500 84.000 C 462.862 85.650 463.537 87.000 464.000 87.000 C 464.463 87.000 465.138 85.650 465.500 84.000 C 465.862 82.350 466.798 81.000 467.579 81.000 C 469.375 81.000 469.359 81.591 467.406 87.322 C 465.217 93.747 462.771 93.654 460.615 87.062 C 458.652 81.060 458.650 81.000 460.421 81.000 C 461.202 81.000 462.138 82.350 462.500 84.000 M 435.000 77.162 C 435.000 78.500 432.220 88.343 430.837 91.902 C 430.284 93.328 429.538 93.938 429.004 93.402 C 427.747 92.142 432.142 76.000 433.742 76.000 C 434.434 76.000 435.000 76.523 435.000 77.162 M 442.000 77.253 C 442.000 78.864 438.366 91.599 437.511 92.981 C 437.154 93.560 436.474 93.793 435.999 93.500 C 435.305 93.071 437.446 83.134 439.501 77.250 C 440.068 75.625 442.000 75.628 442.000 77.253 M 486.000 84.500 C 486.000 90.500 485.700 92.000 484.500 92.000 C 483.300 92.000 483.000 90.500 483.000 84.500 C 483.000 78.500 483.300 77.000 484.500 77.000 C 485.700 77.000 486.000 78.500 486.000 84.500 M 505.000 106.083 C 505.000 111.792 504.658 114.053 503.835 113.778 C 503.114 113.538 502.620 110.737 502.539 106.445 C 502.400 99.026 502.584 98.000 504.059 98.000 C 504.577 98.000 505.000 101.638 505.000 106.083 M 504.000 86.500 C 504.000 90.722 503.652 92.000 502.500 92.000 C 501.348 92.000 501.000 90.722 501.000 86.500 C 501.000 82.278 501.348 81.000 502.500 81.000 C 503.652 81.000 504.000 82.278 504.000 86.500 M 503.217 79.183 C 501.689 80.711 500.562 79.584 501.409 77.376 C 501.909 76.072 502.343 75.943 503.233 76.833 C 504.122 77.722 504.119 78.281 503.217 79.183 "/></g>
<g fill="#42164BFF" stroke="#42164BFF">
<path d="M 61.000 85.500 L 61.000 114.000 77.750 113.978 C 91.914 113.959 95.132 113.669 98.595 112.096 C 102.934 110.126 107.602 104.011 106.653 101.539 C 106.356 100.764 106.619 99.960 107.239 99.754 C 109.306 99.065 106.034 90.237 102.591 87.214 L 99.450 84.456 101.727 81.077 C 104.327 77.218 104.614 70.284 102.359 65.802 C 100.581 62.266 94.433 57.620 92.510 58.358 C 91.680 58.676 91.000 58.501 91.000 57.969 C 91.000 57.387 85.009 57.000 76.000 57.000 L 61.000 57.000 61.000 85.500 M 93.093 90.548 C 98.291 93.236 99.148 99.746 94.819 103.664 C 93.211 105.119 90.679 105.548 81.909 105.848 L 71.000 106.221 71.000 97.611 L 71.000 89.000 80.550 89.000 C 87.214 89.000 91.004 89.468 93.093 90.548 M 89.949 66.752 C 94.285 68.949 95.575 72.986 93.404 77.561 L 91.885 80.763 81.442 80.930 L 71.000 81.096 71.000 73.048 L 71.000 65.000 78.750 65.002 C 84.144 65.003 87.549 65.535 89.949 66.752 "/></g>
<g fill="#42164BFF" stroke="#42164BFF">
<path d="M 148.798 74.362 C 143.747 76.603 136.985 84.652 138.707 86.373 C 139.051 86.718 138.808 87.000 138.167 87.000 C 137.397 87.000 137.000 89.226 137.000 93.550 C 137.000 103.069 140.541 109.165 148.418 113.203 C 153.729 115.926 163.606 115.407 167.978 112.174 C 170.948 109.979 171.000 109.975 171.000 111.970 C 171.000 113.709 171.645 114.000 175.500 114.000 L 180.000 114.000 180.000 93.443 L 180.000 72.885 175.750 73.193 C 172.262 73.445 171.444 73.891 171.190 75.679 L 170.880 77.858 167.300 75.429 C 164.426 73.478 162.517 73.016 157.610 73.081 C 154.250 73.126 150.284 73.702 148.798 74.362 M 165.088 83.280 C 169.164 86.027 170.967 89.306 170.982 94.000 C 171.005 101.374 163.615 108.254 157.123 106.903 C 153.038 106.053 148.854 103.122 147.513 100.172 C 146.970 98.977 146.250 98.000 145.912 98.000 C 145.029 98.000 146.655 88.513 147.954 86.085 C 150.710 80.937 159.480 79.501 165.088 83.280 "/></g>
<g fill="#42164BFF" stroke="#42164BFF">
<path d="M 237.366 74.537 C 233.293 76.323 227.401 83.246 226.616 87.169 C 224.232 99.091 228.106 108.429 237.418 113.203 C 242.774 115.949 252.605 115.407 257.050 112.121 L 260.144 109.834 260.689 111.917 C 261.123 113.577 262.023 114.000 265.117 114.000 L 269.000 114.000 269.000 93.500 L 269.000 73.000 265.475 73.000 C 262.640 73.000 261.765 73.487 261.004 75.489 L 260.058 77.979 256.389 75.489 C 253.420 73.474 251.557 73.016 246.610 73.082 C 243.250 73.126 239.090 73.781 237.366 74.537 M 256.929 85.553 C 260.364 89.135 260.556 89.668 259.992 94.065 C 259.254 99.815 257.003 103.418 252.741 105.672 C 241.909 111.400 230.040 97.044 236.946 86.567 C 239.782 82.266 242.776 80.898 248.382 81.344 C 252.482 81.670 253.851 82.344 256.929 85.553 "/></g>
<g fill="#42164BFF" stroke="#42164BFF">
<path d="M 276.667 73.667 C 276.300 74.033 276.000 83.258 276.000 94.167 L 276.000 114.000 280.500 114.000 L 285.000 114.000 285.015 101.750 C 285.032 87.726 285.814 85.333 291.254 82.670 C 295.662 80.511 300.099 81.116 303.044 84.278 C 304.790 86.151 305.000 87.863 305.000 100.189 L 305.000 114.000 310.000 114.000 L 315.000 114.000 315.000 100.000 C 315.000 91.636 314.610 86.000 314.031 86.000 C 313.499 86.000 313.275 85.438 313.533 84.750 C 314.265 82.806 310.369 77.196 306.759 74.995 C 302.324 72.290 293.669 72.295 289.226 75.004 C 285.178 77.472 285.000 77.472 285.000 75.000 C 285.000 73.348 284.333 73.000 281.167 73.000 C 279.058 73.000 277.033 73.300 276.667 73.667 "/></g>
<g fill="#42164BFF" stroke="#42164BFF">
<path d="M 377.500 74.896 C 375.300 75.914 372.280 78.048 370.789 79.638 C 366.385 84.333 363.274 95.815 365.956 97.473 C 366.482 97.798 366.681 98.667 366.399 99.403 C 366.116 100.140 366.473 101.373 367.192 102.145 C 367.912 102.916 368.646 104.212 368.825 105.024 C 369.919 109.996 378.847 114.945 386.782 114.978 C 395.361 115.014 402.993 110.685 406.630 103.721 C 408.539 100.066 407.711 99.000 402.964 99.000 C 399.910 99.000 398.692 99.540 397.442 101.448 C 396.560 102.795 393.886 104.642 391.501 105.553 C 386.099 107.616 381.313 106.350 377.533 101.857 C 374.475 98.222 374.090 91.348 376.698 86.934 C 378.936 83.146 385.235 80.609 389.953 81.595 C 391.904 82.003 393.743 82.293 394.039 82.239 C 394.336 82.185 395.438 83.420 396.489 84.984 C 397.936 87.136 399.386 87.934 402.450 88.265 C 404.678 88.505 406.876 88.370 407.335 87.965 C 409.416 86.133 402.466 77.724 396.300 74.614 C 391.943 72.417 382.551 72.557 377.500 74.896 "/></g>
<g fill="#42164BFF" stroke="#42164BFF">
<path d="M 324.000 66.937 L 324.000 72.873 320.750 73.187 C 317.783 73.473 317.473 73.826 317.190 77.250 C 316.884 80.939 316.937 81.000 320.440 81.000 L 324.000 81.000 324.000 92.532 C 324.000 100.306 324.469 105.187 325.440 107.510 C 327.498 112.435 332.214 114.992 339.250 114.996 L 345.000 115.000 345.000 110.595 L 345.000 106.190 341.116 106.711 C 338.047 107.123 336.788 106.788 335.116 105.116 C 333.218 103.218 333.000 101.868 333.000 92.000 L 333.000 81.000 339.060 81.000 L 345.121 81.000 344.810 77.250 L 344.500 73.500 338.750 73.200 L 333.000 72.900 333.000 66.950 L 333.000 61.000 328.500 61.000 L 324.000 61.000 324.000 66.937 "/></g>
<g fill="#FFFFFFFF" stroke="#FFFFFFFF">
<path d="M 241.449 82.551 C 232.749 86.845 233.029 100.861 241.906 105.451 C 250.375 109.831 259.987 103.420 259.996 93.385 C 260.005 84.200 249.976 78.343 241.449 82.551 "/></g>
<g fill="#FFFFFFFF" stroke="#FFFFFFFF">
<path d="M 151.881 82.503 C 146.881 85.221 144.462 94.402 147.279 99.970 C 149.022 103.413 154.698 107.001 158.398 106.996 C 165.050 106.988 171.023 100.480 170.985 93.282 C 170.938 84.323 159.945 78.121 151.881 82.503 "/></g>
<g fill="#42164BFF" stroke="#42164BFF">
<path d="M 113.667 73.667 C 113.300 74.033 113.000 83.258 113.000 94.167 L 113.000 114.000 117.500 114.000 L 122.000 114.000 122.000 101.968 C 122.000 94.013 122.467 88.819 123.377 86.640 C 124.995 82.767 129.602 80.470 133.994 81.349 C 136.543 81.859 137.063 81.598 137.576 79.552 C 138.789 74.719 137.849 73.523 132.570 73.188 C 128.816 72.950 126.992 73.369 124.829 74.968 C 122.006 77.055 122.000 77.055 122.000 75.030 C 122.000 73.343 121.352 73.000 118.167 73.000 C 116.058 73.000 114.033 73.300 113.667 73.667 "/></g>
<g fill="#FFFFFFFF" stroke="#FFFFFFFF">
<path d="M 71.000 97.611 L 71.000 106.221 81.860 105.850 C 93.295 105.458 95.406 104.691 97.065 100.329 C 98.310 97.055 96.277 92.195 92.941 90.470 C 91.023 89.478 86.995 89.000 80.550 89.000 L 71.000 89.000 71.000 97.611 "/></g>
<g fill="#42164BFF" stroke="#42164BFF">
<path d="M 185.000 74.253 C 185.000 75.367 186.532 79.499 195.472 102.500 C 200.082 114.360 199.781 114.000 205.085 114.000 L 209.849 114.000 206.034 104.250 C 203.936 98.888 200.309 89.663 197.974 83.750 L 193.728 73.000 189.364 73.000 C 186.535 73.000 185.000 73.440 185.000 74.253 "/></g>
<g fill="#42164BFF" stroke="#42164BFF">
<path d="M 351.667 73.667 C 351.300 74.033 351.000 83.258 351.000 94.167 L 351.000 114.000 355.500 114.000 L 360.000 114.000 360.000 93.500 L 360.000 73.000 356.167 73.000 C 354.058 73.000 352.033 73.300 351.667 73.667 "/></g>
<g fill="#FFFFFFFF" stroke="#FFFFFFFF">
<path d="M 71.000 72.878 L 71.000 81.000 80.500 81.000 C 91.779 81.000 94.000 79.687 94.000 73.023 C 94.000 67.301 91.150 65.719 79.873 65.180 L 71.000 64.755 71.000 72.878 "/></g>
<g fill="#42164BFF" stroke="#42164BFF">
<path d="M 212.125 85.969 C 209.306 93.102 207.000 99.402 207.000 99.969 C 207.000 101.466 215.679 101.261 216.299 99.750 C 222.749 84.022 226.000 75.529 226.000 74.401 C 226.000 73.413 224.711 73.000 221.625 73.000 L 217.251 73.000 212.125 85.969 "/></g>
<g fill="#42164BFF" stroke="#42164BFF">
<path d="M 521.137 105.037 C 519.540 109.617 521.171 113.000 524.975 113.000 C 526.639 113.000 528.000 113.413 528.000 113.917 C 528.000 115.379 525.652 115.777 523.795 114.630 C 521.581 113.260 520.350 114.512 521.980 116.476 C 523.489 118.294 528.114 118.486 529.800 116.800 C 530.498 116.102 531.000 112.756 531.000 108.800 L 531.000 102.000 526.598 102.000 C 522.594 102.000 522.100 102.275 521.137 105.037 M 527.500 107.570 C 527.500 109.483 526.932 110.582 525.835 110.793 C 523.678 111.209 522.425 107.398 524.067 105.419 C 525.879 103.236 527.500 104.252 527.500 107.570 "/></g>
<g fill="#42164BFF" stroke="#42164BFF">
<path d="M 519.443 83.447 C 517.040 87.115 519.284 91.320 524.011 92.006 C 526.310 92.340 527.065 92.792 526.226 93.331 C 525.525 93.780 523.612 93.854 521.976 93.495 C 518.279 92.683 517.946 94.563 521.500 96.182 C 523.370 97.034 524.630 97.034 526.500 96.182 C 528.821 95.124 529.000 94.541 529.000 88.021 L 529.000 81.000 525.023 81.000 C 521.908 81.000 520.699 81.530 519.443 83.447 M 526.389 84.572 C 527.160 86.581 525.236 90.245 523.682 89.728 C 522.286 89.263 521.602 86.479 522.384 84.442 C 523.121 82.521 525.634 82.603 526.389 84.572 "/></g>
<g fill="#42164BFF" stroke="#42164BFF">
<path d="M 405.571 61.571 C 401.994 65.149 404.622 72.000 409.571 72.000 C 412.513 72.000 416.000 68.745 416.000 66.000 C 416.000 61.218 408.928 58.215 405.571 61.571 M 413.394 64.250 C 414.893 66.644 413.065 69.408 409.716 69.810 C 406.391 70.209 404.386 67.016 406.032 63.940 C 407.370 61.440 411.750 61.624 413.394 64.250 M 412.000 66.000 C 412.000 68.826 410.091 70.433 409.921 67.750 C 409.858 66.750 409.741 66.750 409.338 67.750 C 408.401 70.070 407.000 69.021 407.000 66.000 C 407.000 63.467 407.389 63.000 409.500 63.000 C 411.611 63.000 412.000 63.467 412.000 66.000 "/></g>
<g fill="#42164BFF" stroke="#42164BFF">
<path d="M 509.200 103.200 C 507.488 104.912 507.716 110.573 509.571 112.429 C 511.712 114.569 514.598 114.402 517.000 112.000 C 519.403 109.597 519.538 107.214 517.443 104.223 C 515.728 101.774 511.189 101.211 509.200 103.200 M 514.961 105.928 C 516.289 108.409 515.287 111.000 513.000 111.000 C 512.018 111.000 510.942 110.292 510.611 109.428 C 509.938 107.675 511.556 104.000 513.000 104.000 C 513.511 104.000 514.394 104.867 514.961 105.928 "/></g>
<g fill="#42164BFF" stroke="#42164BFF">
<path d="M 490.557 104.223 C 488.463 107.212 488.597 109.597 490.995 111.995 C 494.606 115.606 500.000 112.961 500.000 107.578 C 500.000 105.830 499.460 103.860 498.800 103.200 C 496.811 101.211 492.272 101.774 490.557 104.223 M 496.817 107.264 C 497.028 109.094 496.588 110.221 495.500 110.638 C 493.131 111.548 491.643 109.559 492.409 106.507 C 493.293 102.984 496.384 103.515 496.817 107.264 "/></g>
<g fill="#42164BFF" stroke="#42164BFF">
<path d="M 470.800 83.540 C 468.347 88.924 473.056 94.145 478.105 91.641 C 480.819 90.295 481.728 86.229 480.026 83.049 C 478.330 79.880 472.322 80.200 470.800 83.540 M 477.500 86.500 C 477.500 89.845 474.684 91.224 473.603 88.408 C 472.629 85.868 473.928 82.840 475.835 83.207 C 476.943 83.420 477.500 84.522 477.500 86.500 "/></g>
<g fill="#42164BFF" stroke="#42164BFF">
<path d="M 447.000 84.500 L 447.000 92.000 452.000 92.000 C 454.750 92.000 457.000 91.550 457.000 91.000 C 457.000 90.450 455.425 90.000 453.500 90.000 C 450.667 90.000 450.000 89.619 450.000 88.000 C 450.000 86.360 450.667 86.000 453.700 86.000 C 457.739 86.000 457.230 84.402 453.010 83.835 C 451.609 83.646 450.375 82.735 450.187 81.750 C 449.920 80.348 450.563 80.000 453.427 80.000 C 455.936 80.000 457.000 79.553 457.000 78.500 C 457.000 77.367 455.778 77.000 452.000 77.000 L 447.000 77.000 447.000 84.500 "/></g>
<g fill="#42164BFF" stroke="#42164BFF">
<path d="M 441.200 103.200 C 439.285 105.115 439.762 110.474 442.030 112.527 C 443.618 113.964 444.635 114.162 446.699 113.432 C 448.149 112.920 449.533 111.908 449.773 111.185 C 450.106 110.182 449.353 110.031 446.605 110.546 C 444.222 110.993 443.000 110.846 443.000 110.111 C 443.000 109.500 444.575 109.000 446.500 109.000 C 449.486 109.000 450.000 108.662 450.000 106.700 C 450.000 105.435 449.460 103.860 448.800 103.200 C 447.253 101.653 442.747 101.653 441.200 103.200 M 446.500 105.000 C 446.840 105.550 446.165 106.000 445.000 106.000 C 443.835 106.000 443.160 105.550 443.500 105.000 C 443.840 104.450 444.515 104.000 445.000 104.000 C 445.485 104.000 446.160 104.450 446.500 105.000 "/></g>
<g fill="#42164BFF" stroke="#42164BFF">
<path d="M 464.208 105.670 C 464.399 110.697 464.931 113.482 465.750 113.753 C 466.591 114.031 467.000 113.020 467.000 110.665 C 467.000 106.221 467.850 104.000 469.552 104.000 C 470.439 104.000 470.993 105.601 471.195 108.750 C 471.607 115.161 473.500 114.340 473.500 107.750 C 473.500 102.558 473.464 102.497 470.250 102.187 C 467.810 101.951 467.000 101.391 467.000 99.937 C 467.000 98.858 466.317 98.000 465.458 98.000 C 464.177 98.000 463.965 99.300 464.208 105.670 "/></g>
<g fill="#42164BFF" stroke="#42164BFF">
<path d="M 533.001 102.177 C 533.001 102.355 533.935 104.956 535.076 107.958 C 536.947 112.882 536.996 113.530 535.575 114.569 C 532.536 116.791 534.476 119.257 537.668 117.227 C 538.591 116.639 544.000 103.958 544.000 102.381 C 544.000 102.171 543.386 102.000 542.636 102.000 C 541.885 102.000 540.602 103.688 539.785 105.750 L 538.298 109.500 537.336 106.002 C 536.796 104.038 535.634 102.361 534.687 102.178 C 533.759 102.000 533.000 101.999 533.001 102.177 "/></g>
<g fill="#42164BFF" stroke="#42164BFF">
<path d="M 351.193 65.250 C 351.499 69.479 351.521 69.501 355.750 69.807 L 360.000 70.115 360.000 65.557 L 360.000 61.000 355.443 61.000 L 350.885 61.000 351.193 65.250 "/></g>
<g fill="#42164BFF" stroke="#42164BFF">
<path d="M 477.200 107.512 C 477.566 114.240 479.315 115.169 480.000 109.000 C 480.346 105.889 480.963 104.500 482.000 104.500 C 483.037 104.500 483.654 105.889 484.000 109.000 C 484.275 111.475 484.950 113.500 485.500 113.500 C 486.706 113.500 487.380 107.652 486.555 104.362 C 486.041 102.314 485.359 102.000 481.431 102.000 L 476.900 102.000 477.200 107.512 "/></g>
<g fill="#42164BFF" stroke="#42164BFF">
<path d="M 506.000 86.445 C 506.000 91.333 506.240 92.000 508.000 92.000 C 509.708 92.000 510.000 91.333 510.000 87.427 C 510.000 83.611 510.290 82.908 511.750 83.185 C 513.027 83.427 513.583 84.665 513.807 87.759 C 513.977 90.091 514.563 92.000 515.110 92.000 C 515.682 92.000 515.976 89.767 515.802 86.750 L 515.500 81.500 510.750 81.195 L 506.000 80.890 506.000 86.445 "/></g>
<g fill="#42164BFF" stroke="#42164BFF">
<path d="M 453.200 103.200 C 451.317 105.083 451.759 110.472 453.960 112.464 C 456.210 114.500 460.720 113.894 461.666 111.427 C 462.488 109.285 461.323 108.487 459.537 109.969 C 457.389 111.752 455.000 110.499 455.000 107.590 C 455.000 104.443 456.377 103.594 458.914 105.178 C 461.359 106.705 462.752 105.611 461.020 103.524 C 459.511 101.706 454.886 101.514 453.200 103.200 "/></g>
<g fill="#42164BFF" stroke="#42164BFF">
<path d="M 428.000 99.500 C 428.000 100.433 428.944 101.000 430.500 101.000 C 432.910 101.000 433.000 101.233 433.000 107.500 C 433.000 111.167 433.436 114.000 434.000 114.000 C 434.564 114.000 435.000 111.167 435.000 107.500 C 435.000 101.233 435.090 101.000 437.500 101.000 C 439.056 101.000 440.000 100.433 440.000 99.500 C 440.000 98.333 438.667 98.000 434.000 98.000 C 429.333 98.000 428.000 98.333 428.000 99.500 "/></g>
<g fill="#42164BFF" stroke="#42164BFF">
<path d="M 488.001 81.177 C 488.001 81.355 488.855 83.750 489.897 86.500 C 492.219 92.623 494.398 93.377 496.340 88.728 C 499.019 82.318 499.241 81.000 497.645 81.000 C 496.810 81.000 495.611 82.649 494.917 84.750 L 493.679 88.500 492.501 85.000 C 491.853 83.075 490.575 81.355 489.661 81.177 C 488.748 80.999 488.000 80.999 488.001 81.177 "/></g>
<g fill="#42164BFF" stroke="#42164BFF">
<path d="M 459.000 81.616 C 459.000 81.954 459.781 84.429 460.735 87.116 C 463.014 93.534 465.266 93.604 467.406 87.322 C 469.359 81.591 469.375 81.000 467.579 81.000 C 466.798 81.000 465.862 82.350 465.500 84.000 C 465.138 85.650 464.463 87.000 464.000 87.000 C 463.537 87.000 462.862 85.650 462.500 84.000 C 462.138 82.350 461.202 81.000 460.421 81.000 C 459.639 81.000 459.000 81.277 459.000 81.616 "/></g>
<g fill="#FFFFFFFF" stroke="#FFFFFFFF">
<path d="M 406.032 63.940 C 404.386 67.016 406.391 70.209 409.716 69.810 C 413.065 69.408 414.893 66.644 413.394 64.250 C 411.750 61.624 407.370 61.440 406.032 63.940 "/></g>
<g fill="#42164BFF" stroke="#42164BFF">
<path d="M 439.501 77.250 C 437.327 83.476 435.307 93.072 436.070 93.543 C 436.584 93.861 437.486 92.856 438.076 91.310 C 439.248 88.238 442.000 78.056 442.000 76.790 C 442.000 75.513 439.977 75.886 439.501 77.250 "/></g>
<g fill="#42164BFF" stroke="#42164BFF">
<path d="M 432.466 77.250 C 430.503 82.462 428.273 92.655 428.947 93.337 C 429.402 93.798 430.000 93.798 430.277 93.337 C 430.845 92.390 435.000 77.742 435.000 76.686 C 435.000 75.491 432.958 75.946 432.466 77.250 "/></g>
<g fill="#42164BFF" stroke="#42164BFF">
<path d="M 483.000 84.500 C 483.000 90.500 483.300 92.000 484.500 92.000 C 485.700 92.000 486.000 90.500 486.000 84.500 C 486.000 78.500 485.700 77.000 484.500 77.000 C 483.300 77.000 483.000 78.500 483.000 84.500 "/></g>
<g fill="#42164BFF" stroke="#42164BFF">
<path d="M 501.000 86.500 C 501.000 90.722 501.348 92.000 502.500 92.000 C 503.652 92.000 504.000 90.722 504.000 86.500 C 504.000 82.278 503.652 81.000 502.500 81.000 C 501.348 81.000 501.000 82.278 501.000 86.500 "/></g>
<g fill="#42164BFF" stroke="#42164BFF">
<path d="M 503.000 106.000 C 503.000 110.667 503.417 114.000 504.000 114.000 C 504.583 114.000 505.000 110.667 505.000 106.000 C 505.000 101.333 504.583 98.000 504.000 98.000 C 503.417 98.000 503.000 101.333 503.000 106.000 "/></g>
<g fill="#FFFFFFFF" stroke="#FFFFFFFF">
<path d="M 493.068 105.419 C 491.312 107.534 492.156 110.500 494.514 110.500 C 496.041 110.500 496.500 109.827 496.500 107.583 C 496.500 104.254 494.881 103.233 493.068 105.419 "/></g>
<g fill="#FFFFFFFF" stroke="#FFFFFFFF">
<path d="M 473.563 84.802 C 472.709 87.492 473.946 90.157 475.876 89.785 C 478.138 89.350 478.103 83.643 475.835 83.207 C 474.884 83.024 473.910 83.708 473.563 84.802 "/></g>
<g fill="#FFFFFFFF" stroke="#FFFFFFFF">
<path d="M 511.667 104.667 C 511.300 105.033 511.000 106.608 511.000 108.167 C 511.000 110.280 511.481 111.000 512.893 111.000 C 515.274 111.000 516.313 108.453 514.961 105.928 C 513.892 103.930 512.815 103.518 511.667 104.667 "/></g>
<g fill="#42164BFF" stroke="#42164BFF">
<path d="M 407.000 66.000 C 407.000 69.021 408.401 70.070 409.338 67.750 C 409.741 66.750 409.858 66.750 409.921 67.750 C 410.091 70.433 412.000 68.826 412.000 66.000 C 412.000 63.467 411.611 63.000 409.500 63.000 C 407.389 63.000 407.000 63.467 407.000 66.000 "/></g>
<g fill="#FFFFFFFF" stroke="#FFFFFFFF">
<path d="M 523.958 105.551 C 522.981 106.728 522.902 107.621 523.667 108.834 C 525.373 111.538 527.500 110.844 527.500 107.583 C 527.500 104.180 525.871 103.245 523.958 105.551 "/></g>
<g fill="#FFFFFFFF" stroke="#FFFFFFFF">
<path d="M 522.667 83.667 C 521.576 84.757 521.909 88.826 523.152 89.594 C 524.977 90.722 527.113 87.079 525.926 84.862 C 524.890 82.925 523.806 82.528 522.667 83.667 "/></g>
<g fill="#42164BFF" stroke="#42164BFF">
<path d="M 501.500 77.000 C 501.101 77.646 501.224 78.624 501.774 79.174 C 502.441 79.841 503.016 79.783 503.500 79.000 C 503.899 78.354 503.776 77.376 503.226 76.826 C 502.559 76.159 501.984 76.217 501.500 77.000 "/></g>
<g fill="#FFFFFFFF" stroke="#FFFFFFFF">
<path d="M 443.500 105.000 C 443.160 105.550 443.835 106.000 445.000 106.000 C 446.165 106.000 446.840 105.550 446.500 105.000 C 446.160 104.450 445.485 104.000 445.000 104.000 C 444.515 104.000 443.840 104.450 443.500 105.000 "/></g>
</svg>
