<?xml version="1.0" encoding="UTF-8"?>
<!-- Generator: visioncortex VTracer 0.6.3 -->
<svg version="1.1" xmlns="http://www.w3.org/2000/svg" width="1280" height="366">
<path d="M0 0 C422.4 0 844.8 0 1280 0 C1280 120.78 1280 241.56 1280 366 C857.6 366 435.2 366 0 366 C0 245.22 0 124.44 0 0 Z " fill="#FBFCFE" transform="translate(0,0)"/>
<path d="M0 0 C1.72 -0.01 1.72 -0.01 3.48 -0.03 C4.73 -0.03 5.98 -0.03 7.27 -0.03 C8.55 -0.03 9.83 -0.03 11.15 -0.04 C13.88 -0.05 16.6 -0.05 19.32 -0.04 C22.79 -0.04 26.25 -0.05 29.72 -0.08 C33.05 -0.09 36.38 -0.09 39.7 -0.09 C41.55 -0.1 41.55 -0.1 43.44 -0.12 C54.33 -0.06 64.91 1.73 73.08 9.46 C80.68 17.51 83.01 24.92 83.77 35.9 C83.68 37.01 83.6 38.13 83.52 39.27 C83.47 39.96 83.43 40.64 83.38 41.35 C82.38 48.81 77.72 53.15 72.52 58.27 C73.34 58.75 74.17 59.22 75.02 59.71 C81.59 64.11 87.32 70.59 89.52 78.27 C89.94 81.41 89.99 84.49 89.95 87.65 C89.95 88.49 89.94 89.33 89.93 90.2 C89.77 96.28 89.05 101.18 85.52 106.27 C84.43 107.85 84.43 107.85 83.33 109.46 C73.25 119.54 62.05 121.61 48.12 121.64 C46.73 121.63 45.33 121.62 43.94 121.6 C42.48 121.6 41.02 121.6 39.56 121.6 C36.53 121.59 33.5 121.58 30.47 121.56 C26.58 121.53 22.68 121.52 18.79 121.51 C15.79 121.51 12.79 121.5 9.79 121.49 C8.35 121.48 6.91 121.48 5.48 121.47 C3.48 121.47 1.49 121.45 -0.5 121.44 C-1.64 121.43 -2.77 121.42 -3.94 121.42 C-6.48 121.27 -6.48 121.27 -7.48 120.27 C-7.58 118.75 -7.62 117.22 -7.62 115.69 C-7.62 114.7 -7.63 113.71 -7.63 112.68 C-7.63 111.04 -7.63 111.04 -7.63 109.36 C-7.63 108.21 -7.64 107.07 -7.64 105.88 C-7.65 102.07 -7.65 98.25 -7.65 94.43 C-7.66 91.8 -7.66 89.16 -7.66 86.52 C-7.67 80.98 -7.67 75.43 -7.67 69.89 C-7.67 63.48 -7.68 57.07 -7.7 50.66 C-7.71 44.5 -7.71 38.34 -7.71 32.18 C-7.71 29.56 -7.72 26.93 -7.73 24.31 C-7.74 20.64 -7.73 16.98 -7.73 13.32 C-7.73 12.22 -7.74 11.13 -7.74 10 C-7.74 9.01 -7.74 8.01 -7.73 6.99 C-7.73 6.12 -7.73 5.25 -7.73 4.36 C-7.17 -0.37 -3.96 0.02 0 0 Z " fill="#3F1649" transform="translate(135.484375,119.725341796875)"/>
<path d="M0 0 C2.26 1.63 4.51 3.27 6.72 4.97 C6.91 3.3 6.91 3.3 7.1 1.59 C7.72 -2.03 7.72 -2.03 9.72 -4.03 C12.91 -4.3 12.91 -4.3 16.72 -4.28 C17.98 -4.29 19.24 -4.29 20.54 -4.3 C23.72 -4.03 23.72 -4.03 25.72 -2.03 C25.91 0.65 25.97 3.23 25.95 5.91 C25.95 6.73 25.95 7.55 25.95 8.39 C25.95 11.11 25.93 13.82 25.92 16.54 C25.91 18.42 25.91 20.3 25.91 22.18 C25.9 27.14 25.88 32.09 25.86 37.05 C25.84 42.1 25.83 47.15 25.82 52.21 C25.8 62.13 25.76 72.05 25.72 81.97 C23.1 82.02 20.47 82.06 17.85 82.09 C17.1 82.11 16.35 82.13 15.59 82.14 C13.63 82.16 11.68 82.07 9.72 81.97 C7.16 79.4 7.18 77.49 6.72 73.97 C6.17 74.37 5.61 74.77 5.04 75.18 C-5.5 82.49 -15.46 84.96 -28.28 83.97 C-39.71 81.76 -50.38 76.44 -57.78 67.26 C-65.41 55.57 -67.54 42.59 -65.28 28.97 C-62.19 17.69 -56.9 7.37 -46.67 1.21 C-31.5 -6.67 -15.39 -9.54 0 0 Z " fill="#3F1649" transform="translate(355.27734375,159.03125)"/>
<path d="M0 0 C2.65 1.93 5.22 3.92 7.75 6 C7.96 5.36 8.16 4.72 8.38 4.07 C8.64 3.24 8.91 2.41 9.19 1.56 C9.46 0.74 9.73 -0.08 10 -0.93 C10.75 -3 10.75 -3 11.75 -4 C13.73 -4.13 15.71 -4.18 17.69 -4.19 C18.77 -4.2 19.85 -4.22 20.97 -4.23 C23.75 -4 23.75 -4 25.75 -2 C25.94 0.68 26.01 3.26 25.98 5.94 C25.98 6.76 25.98 7.58 25.98 8.42 C25.98 11.14 25.96 13.85 25.95 16.57 C25.95 18.45 25.94 20.33 25.94 22.21 C25.93 27.17 25.91 32.12 25.89 37.08 C25.87 42.13 25.86 47.18 25.85 52.24 C25.83 62.16 25.8 72.08 25.75 82 C20.8 82 15.85 82 10.75 82 C9.76 79.36 8.77 76.72 7.75 74 C5.02 75.2 3.11 76.53 0.75 78.44 C-7.46 84.34 -18.48 84.98 -28.25 84 C-40.24 82 -50.03 76.58 -57.75 67.06 C-64.75 56.68 -67.94 43.74 -65.56 31.45 C-62.41 18.4 -57.1 9.14 -46.25 1 C-31.05 -6.59 -15.28 -9.42 0 0 Z " fill="#3F1649" transform="translate(545.24609375,159)"/>
<path d="M0 0 C7.35 4.92 12.26 13.37 14 22 C14.09 24.02 14.12 26.04 14.11 28.05 C14.11 29.89 14.11 29.89 14.11 31.75 C14.11 33.07 14.1 34.38 14.1 35.73 C14.1 37.1 14.09 38.46 14.09 39.82 C14.09 43.4 14.08 46.97 14.07 50.55 C14.06 54.21 14.05 57.86 14.05 61.51 C14.04 68.67 14.02 75.84 14 83 C11.35 83.03 8.71 83.05 6.06 83.06 C5.31 83.07 4.55 83.08 3.78 83.09 C1.85 83.1 -0.08 83.05 -2 83 C-3.61 81.39 -3.15 79.65 -3.17 77.42 C-3.19 76.45 -3.2 75.47 -3.21 74.47 C-3.22 73.41 -3.24 72.34 -3.25 71.25 C-3.28 69.01 -3.31 66.77 -3.35 64.53 C-3.39 60.99 -3.44 57.45 -3.48 53.91 C-3.52 50.5 -3.57 47.09 -3.62 43.68 C-3.63 42.63 -3.64 41.59 -3.65 40.5 C-3.79 31.85 -4.64 24.61 -10.23 17.7 C-14.21 13.87 -18.53 13.17 -23.88 12.56 C-30.07 12.82 -35.61 15.6 -40.88 18.69 C-47.19 25.56 -47.6 33.53 -47.61 42.47 C-47.63 43.64 -47.64 44.8 -47.66 46 C-47.71 49.69 -47.73 53.37 -47.75 57.06 C-47.78 59.57 -47.81 62.09 -47.84 64.6 C-47.91 70.73 -47.97 76.87 -48 83 C-50.81 83.03 -53.62 83.05 -56.44 83.06 C-57.24 83.07 -58.04 83.08 -58.87 83.09 C-60.91 83.1 -62.96 83.05 -65 83 C-66.75 81.25 -66.13 78.96 -66.15 76.63 C-66.15 75.86 -66.15 75.09 -66.15 74.3 C-66.15 73.49 -66.15 72.69 -66.16 71.86 C-66.16 69.18 -66.17 66.5 -66.17 63.82 C-66.17 61.96 -66.17 60.11 -66.18 58.25 C-66.18 54.36 -66.19 50.47 -66.19 46.57 C-66.19 41.57 -66.2 36.58 -66.22 31.58 C-66.23 27.75 -66.23 23.91 -66.23 20.08 C-66.23 18.24 -66.23 16.4 -66.24 14.55 C-66.25 11.98 -66.25 9.4 -66.24 6.83 C-66.25 6.06 -66.25 5.3 -66.26 4.51 C-66.23 -0.77 -66.23 -0.77 -64 -3 C-61.42 -3.14 -58.95 -3.19 -56.38 -3.12 C-55.67 -3.12 -54.96 -3.11 -54.23 -3.1 C-52.49 -3.07 -50.74 -3.04 -49 -3 C-48.01 -0.36 -47.02 2.28 -46 5 C-45.49 4.61 -44.98 4.23 -44.45 3.83 C-30.07 -6.47 -15.88 -7.36 0 0 Z " fill="#3F1649" transform="translate(653,158)"/>
<path d="M0 0 C1.15 0.8 2.27 1.64 3.38 2.5 C4.17 3.08 4.97 3.66 5.79 4.26 C8.75 6.83 10.93 9.66 13.12 12.88 C13.52 13.43 13.92 13.98 14.33 14.55 C16.84 18.17 17.98 21.12 18.38 25.5 C15.64 25.61 12.92 25.69 10.19 25.75 C9.03 25.8 9.03 25.8 7.86 25.85 C3.9 25.92 1.9 25.83 -1.54 23.67 C-3.62 21.5 -3.62 21.5 -5.81 18.5 C-9.65 13.78 -15.23 12.08 -21.07 11.08 C-29.19 10.6 -36.79 13.78 -43.34 18.43 C-46.59 21.37 -47.94 24.53 -49.62 28.5 C-50.04 29.45 -50.45 30.4 -50.88 31.38 C-52.84 39.57 -52.05 47.23 -47.62 54.5 C-41.89 61.13 -36.05 64.93 -27.36 65.84 C-19.44 66.19 -13.01 65.46 -6.62 60.5 C-5.39 58.92 -4.18 57.31 -3 55.69 C-1.1 53.32 0.25 51.75 3.26 51.08 C8 50.65 12.66 50.91 17.38 51.5 C17.71 51.83 18.03 52.16 18.38 52.5 C18.12 58.3 16.22 61.81 12.62 66.19 C12.19 66.74 11.76 67.3 11.32 67.87 C3.74 77.41 -5.83 81.47 -17.62 83.5 C-32.42 84.93 -45.3 80.8 -56.94 71.69 C-65.66 63.75 -69.79 53 -70.8 41.45 C-71.23 29.68 -66.89 18.22 -59.67 9 C-57.75 7 -55.79 5.23 -53.62 3.5 C-53.07 3.03 -52.51 2.57 -51.94 2.09 C-37.19 -8.64 -15.46 -9.47 0 0 Z " fill="#3F1649" transform="translate(847.625,159.5)"/>
<path d="M0 0 C3.93 -0.03 3.93 -0.03 7.94 -0.06 C8.76 -0.07 9.59 -0.08 10.44 -0.09 C12.29 -0.1 14.15 -0.05 16 0 C17.75 1.75 17.23 4.19 17.32 6.57 C17.36 7.69 17.4 8.82 17.44 9.97 C17.48 11.16 17.52 12.34 17.56 13.56 C17.61 14.75 17.65 15.94 17.69 17.16 C17.8 20.11 17.9 23.05 18 26 C19.04 26.04 19.04 26.04 20.1 26.08 C23.21 26.19 26.32 26.31 29.44 26.44 C30.53 26.48 31.61 26.52 32.74 26.56 C33.77 26.6 34.81 26.64 35.87 26.68 C36.83 26.72 37.79 26.76 38.78 26.79 C41 27 41 27 42 28 C42.07 30.35 42.08 32.71 42.06 35.06 C42.05 36.35 42.04 37.64 42.04 38.97 C42.02 39.97 42.01 40.97 42 42 C41.31 42.03 40.62 42.05 39.9 42.08 C36.79 42.19 33.68 42.31 30.56 42.44 C29.47 42.48 28.39 42.52 27.26 42.56 C26.23 42.6 25.19 42.64 24.13 42.68 C23.17 42.72 22.21 42.76 21.22 42.79 C19.03 42.76 19.03 42.76 18 44 C17.9 45.35 17.86 46.7 17.85 48.06 C17.85 48.92 17.84 49.78 17.84 50.67 C17.83 51.61 17.83 52.54 17.83 53.51 C17.83 54.47 17.83 55.43 17.82 56.42 C17.82 58.46 17.81 60.5 17.81 62.54 C17.81 65.66 17.79 68.77 17.78 71.88 C17.77 73.86 17.77 75.84 17.77 77.82 C17.76 78.75 17.76 79.68 17.75 80.64 C17.65 88.68 17.65 88.68 21.45 95.46 C27.29 98.43 32.65 98.3 39.12 98.04 C40.07 98.03 41.02 98.01 42 98 C43 99 43 99 43.1 102.38 C43.09 103.77 43.08 105.17 43.06 106.56 C43.06 107.27 43.05 107.98 43.05 108.72 C43.04 110.48 43.02 112.24 43 114 C30.73 115.89 18.56 116.33 8.06 108.81 C2.17 103.82 0.01 98.53 -1 91 C-1.19 87.31 -1.26 83.61 -1.32 79.91 C-1.34 78.86 -1.36 77.8 -1.38 76.71 C-1.44 73.35 -1.5 69.99 -1.56 66.62 C-1.61 64.34 -1.65 62.05 -1.69 59.77 C-1.8 54.18 -1.9 48.59 -2 43 C-3.39 42.91 -3.39 42.91 -4.81 42.82 C-6.01 42.73 -7.2 42.65 -8.44 42.56 C-9.63 42.48 -10.83 42.4 -12.06 42.32 C-15 42 -15 42 -16 41 C-16.13 39.02 -16.18 37.04 -16.19 35.06 C-16.2 33.98 -16.22 32.9 -16.23 31.79 C-16 29 -16 29 -14 27 C-9.32 26.72 -4.69 26.91 0 27 C0 18.09 0 9.18 0 0 Z " fill="#3F1649" transform="translate(690,128)"/>
<path d="M0 0 C2.55 2.06 4.27 4.23 6 7 C6.4 7.61 6.79 8.23 7.2 8.86 C11.85 16.51 12.29 25.1 10.39 33.79 C7.82 41.09 3.32 46.46 -3.36 50.38 C-10.65 53.7 -18.43 54.38 -26.12 51.94 C-34.22 48.35 -39.47 43.38 -43.12 35.33 C-46.29 26.89 -45.44 19.28 -42.39 10.87 C-38.92 3.7 -33.34 -0.39 -26.08 -3.31 C-16.4 -6.53 -9.03 -4.62 0 0 Z " fill="#FCFDFF" transform="translate(542,174)"/>
<path d="M0 0 C7.61 8.14 10.09 15.55 9.96 26.49 C9.3 34.69 5.99 40.66 -0.05 46.18 C-7.12 51.48 -14.62 52.92 -23.31 51.88 C-30.67 50.38 -37.13 45.58 -41.97 39.95 C-45.91 33.87 -47.35 26 -46.31 18.88 C-44.23 10.21 -40.5 3.08 -32.78 -1.69 C-21.14 -7.71 -11.18 -7.17 0 0 Z " fill="#FCFDFF" transform="translate(353.3125,175.125)"/>
<path d="M0 0 C0.03 1.73 0.05 3.46 0.06 5.19 C0.07 6.15 0.09 7.11 0.1 8.11 C0 10.86 -0.38 13.32 -1 16 C-1.83 15.76 -1.83 15.76 -2.68 15.52 C-9.82 13.92 -16.6 14.48 -23.13 17.8 C-27.89 20.85 -30.46 25.67 -32 31 C-32.46 35.16 -32.49 39.31 -32.51 43.5 C-32.53 44.68 -32.55 45.87 -32.57 47.1 C-32.62 50.88 -32.65 54.66 -32.69 58.44 C-32.72 61.01 -32.76 63.58 -32.79 66.15 C-32.88 72.43 -32.94 78.72 -33 85 C-38.61 85 -44.22 85 -50 85 C-51.56 81.88 -51.13 78.57 -51.11 75.15 C-51.11 74.34 -51.11 73.53 -51.11 72.7 C-51.11 70.02 -51.11 67.33 -51.1 64.65 C-51.1 62.79 -51.09 60.93 -51.09 59.07 C-51.09 54.18 -51.08 49.28 -51.07 44.39 C-51.06 39.39 -51.05 34.4 -51.05 29.41 C-51.04 19.6 -51.02 9.8 -51 0 C-48.03 -1.49 -45.3 -1.17 -42 -1.19 C-40.11 -1.21 -40.11 -1.21 -38.19 -1.23 C-35 -1 -35 -1 -33 1 C-32.29 2.98 -31.61 4.98 -31 7 C-30.24 6.09 -29.47 5.19 -28.69 4.25 C-20.68 -3.76 -9.79 -4.8 0 0 Z " fill="#3F1649" transform="translate(290,156)"/>
<path d="M0 0 C0.88 -0.01 1.76 -0.02 2.67 -0.03 C4.11 -0.04 4.11 -0.04 5.58 -0.04 C6.56 -0.05 7.55 -0.05 8.56 -0.06 C10.65 -0.07 12.74 -0.08 14.82 -0.08 C18.01 -0.09 21.19 -0.12 24.38 -0.15 C26.4 -0.16 28.43 -0.16 30.46 -0.17 C31.88 -0.19 31.88 -0.19 33.34 -0.2 C38.61 -0.19 42.3 0.2 46.85 3.16 C48.71 5.13 48.71 5.13 50.16 7.22 C50.9 8.26 50.9 8.26 51.65 9.32 C54.85 14.22 54.39 19.47 53.85 25.16 C51.69 29.64 48.92 32.34 44.85 35.16 C42.01 36.11 40.25 36.29 37.3 36.29 C36.39 36.29 35.47 36.3 34.52 36.3 C33.54 36.3 32.55 36.3 31.53 36.29 C30.01 36.3 30.01 36.3 28.46 36.3 C26.31 36.3 24.17 36.3 22.03 36.29 C18.73 36.29 15.44 36.29 12.14 36.3 C10.06 36.3 7.98 36.3 5.91 36.29 C4.42 36.3 4.42 36.3 2.9 36.3 C1.53 36.3 1.53 36.3 0.14 36.29 C-1.07 36.29 -1.07 36.29 -2.3 36.29 C-4.15 36.16 -4.15 36.16 -5.15 35.16 C-5.25 32.65 -5.29 30.17 -5.28 27.66 C-5.28 26.91 -5.28 26.16 -5.28 25.39 C-5.29 23.8 -5.28 22.2 -5.28 20.61 C-5.27 18.17 -5.28 15.73 -5.29 13.29 C-5.29 11.74 -5.28 10.2 -5.28 8.66 C-5.28 7.93 -5.29 7.19 -5.29 6.43 C-5.26 0.05 -5.26 0.05 0 0 Z " fill="#FCFDFF" transform="translate(152.149169921875,187.8388671875)"/>
<path d="M0 0 C2.27 -0.01 4.55 -0.04 6.82 -0.07 C24.08 -0.2 24.08 -0.2 31.12 5.62 C35.84 11.45 36.95 15.51 36.8 23 C35.92 28.12 33.28 31.11 29.24 34.24 C26.42 35.88 24.39 36.49 21.13 36.48 C19.94 36.49 19.94 36.49 18.72 36.49 C17.44 36.48 17.44 36.48 16.14 36.47 C14.82 36.47 14.82 36.47 13.47 36.47 C11.62 36.47 9.76 36.46 7.91 36.45 C5.06 36.43 2.21 36.43 -0.64 36.43 C-2.45 36.42 -4.25 36.42 -6.05 36.41 C-6.91 36.41 -7.76 36.41 -8.65 36.4 C-14.64 36.36 -14.64 36.36 -15.76 35.24 C-15.84 32.72 -15.87 30.23 -15.85 27.71 C-15.85 26.95 -15.85 26.2 -15.85 25.42 C-15.84 23.01 -15.83 20.59 -15.82 18.18 C-15.81 16.54 -15.81 14.91 -15.8 13.28 C-15.79 9.26 -15.78 5.25 -15.76 1.24 C-11.23 -1.02 -5.03 0.01 0 0 Z " fill="#FCFDFF" transform="translate(162.755615234375,135.759765625)"/>
<path d="M0 0 C5.61 0 11.22 0 17 0 C19.63 5.64 22.15 11.27 24.36 17.1 C26.87 23.66 29.43 30.21 32 36.75 C32.46 37.92 32.92 39.09 33.4 40.3 C35.82 46.47 38.25 52.64 40.69 58.8 C41.89 61.85 43.1 64.9 44.3 67.95 C44.89 69.44 45.48 70.93 46.07 72.42 C46.9 74.5 47.72 76.58 48.54 78.67 C49.25 80.47 49.25 80.47 49.98 82.3 C51 85 51 85 51 86 C48.06 86.08 45.13 86.14 42.19 86.19 C41.35 86.21 40.52 86.24 39.66 86.26 C38.86 86.27 38.06 86.28 37.23 86.29 C36.49 86.31 35.75 86.32 34.99 86.34 C32.4 85.9 31.6 85.06 30 83 C29.12 81.21 29.12 81.21 28.38 79.17 C28.09 78.39 27.8 77.6 27.5 76.8 C27.19 75.94 26.88 75.07 26.56 74.19 C25.85 72.28 25.14 70.36 24.43 68.45 C24.04 67.42 23.66 66.38 23.26 65.31 C21.22 59.96 19.09 54.65 16.95 49.33 C16.19 47.43 15.42 45.53 14.66 43.63 C12.31 37.74 9.94 31.86 7.56 25.98 C6.51 23.4 5.47 20.82 4.43 18.23 C3.7 16.41 2.96 14.6 2.21 12.78 C1.78 11.69 1.34 10.59 0.89 9.46 C0.3 8.02 0.3 8.02 -0.29 6.55 C-1 4 -1 4 0 0 Z " fill="#3F1649" transform="translate(393,155)"/>
<path d="M0 0 C1.89 0.01 1.89 0.01 3.81 0.02 C5.07 0.01 6.33 0.01 7.62 0 C10.81 0.27 10.81 0.27 12.81 2.27 C13 4.95 13.06 7.52 13.04 10.2 C13.04 11.02 13.04 11.84 13.04 12.69 C13.04 15.4 13.02 18.12 13.01 20.84 C13 22.72 13 24.6 13 26.48 C12.99 31.43 12.97 36.39 12.95 41.34 C12.93 46.4 12.92 51.45 12.91 56.5 C12.89 66.42 12.85 76.35 12.81 86.27 C10.19 86.32 7.56 86.36 4.94 86.39 C4.19 86.41 3.44 86.42 2.68 86.44 C0.72 86.46 -1.23 86.37 -3.19 86.27 C-5.69 83.76 -5.43 82.25 -5.46 78.84 C-5.45 78.08 -5.45 77.32 -5.45 76.54 C-5.45 75.35 -5.45 75.35 -5.46 74.13 C-5.47 71.49 -5.46 68.84 -5.45 66.2 C-5.45 64.37 -5.46 62.54 -5.46 60.71 C-5.46 56.87 -5.46 53.03 -5.45 49.19 C-5.44 44.26 -5.44 39.33 -5.46 34.4 C-5.46 30.62 -5.46 26.84 -5.46 23.06 C-5.45 21.24 -5.46 19.42 -5.46 17.6 C-5.47 15.06 -5.46 12.53 -5.45 9.99 C-5.45 9.23 -5.45 8.48 -5.46 7.7 C-5.4 0.45 -5.4 0.45 0 0 Z " fill="#3F1649" transform="translate(752.1875,154.734375)"/>
<path d="M0 0 C0.73 0.01 1.47 0.02 2.22 0.02 C2.95 0.02 3.68 0.01 4.43 0 C8.24 0.01 10.04 0.11 13.28 2.27 C13.05 2.79 12.82 3.3 12.58 3.84 C9.76 10.13 7.06 16.47 4.41 22.84 C3.97 23.89 3.53 24.94 3.08 26.02 C0.06 33.3 -2.79 40.62 -5.46 48.03 C-6.69 51.19 -8.2 54.24 -9.72 57.27 C-15.66 57.6 -21.6 57.93 -27.72 58.27 C-28.87 54.81 -28.58 54.26 -27.27 51 C-26.92 50.13 -26.57 49.25 -26.21 48.35 C-25.82 47.4 -25.43 46.44 -25.03 45.46 C-24.63 44.47 -24.23 43.48 -23.82 42.46 C-22.94 40.27 -22.06 38.08 -21.18 35.89 C-19.6 31.99 -18.06 28.07 -16.51 24.15 C-15.7 22.09 -14.89 20.04 -14.08 17.99 C-13.55 16.64 -13.01 15.29 -12.48 13.94 C-11.73 12.03 -10.98 10.13 -10.22 8.22 C-9.79 7.12 -9.35 6.02 -8.9 4.89 C-6.77 0.17 -4.99 0.02 0 0 Z " fill="#D24F92" transform="translate(467.716796875,154.7265625)"/>
<path d="M0 0 C0.99 0 1.98 0 3 0 C4.32 0 5.64 0 7 0 C7.12 4.58 7.19 9.17 7.25 13.75 C7.3 15.7 7.3 15.7 7.35 17.7 C7.36 18.95 7.38 20.2 7.39 21.48 C7.41 22.64 7.43 23.79 7.45 24.98 C6.9 28.64 5.88 29.76 3 32 C-0.73 33.32 -4.43 33.62 -8.14 32.16 C-10.06 31.06 -10.06 31.06 -13 29 C-12.67 28.01 -12.34 27.02 -12 26 C-11.34 26.16 -10.68 26.33 -10 26.5 C-6.27 27.12 -2.78 27.06 1 27 C1 25.35 1 23.7 1 22 C0.34 22.33 -0.32 22.66 -1 23 C-5.41 23.04 -8.96 22.8 -12.5 20.06 C-15.32 16.18 -15.62 12.7 -15 8 C-13.73 4.6 -12.02 1.85 -9.19 -0.5 C-5.97 -1.23 -3.21 -0.58 0 0 Z " fill="#D24F92" transform="translate(1119,171)"/>
<path d="M0 0 C0.99 0.66 1.98 1.32 3 2 C3.99 1.34 4.98 0.68 6 0 C9.59 3.59 8.17 15.59 8.31 20.44 C8.35 21.57 8.39 22.7 8.43 23.87 C7.9 27.7 6.72 29.3 4 32 C-0.91 33.64 -4.68 33.58 -9.44 31.5 C-10.28 31 -11.13 30.51 -12 30 C-11.67 29.01 -11.34 28.02 -11 27 C-10.23 27.08 -9.46 27.17 -8.66 27.25 C-7.66 27.36 -6.66 27.46 -5.62 27.56 C-4.63 27.67 -3.63 27.77 -2.6 27.88 C-0.02 28.21 -0.02 28.21 2 27 C1.67 25.68 1.34 24.36 1 23 C0.41 23.05 -0.18 23.09 -0.79 23.14 C-5.02 23.33 -7.32 23.42 -11 21.12 C-14.33 17.58 -14.29 15.01 -14.21 10.32 C-13.9 6.92 -12.98 4.77 -11 2 C-7.05 -0.66 -4.55 -1.6 0 0 Z " fill="#D24F92" transform="translate(1122,216)"/>
<path d="M0 0 C4.66 -0.33 7.38 -0.05 11 3 C13.76 6.81 15.38 10.43 15.06 15.19 C13.81 19.69 12.85 21.35 9 24 C4.47 25.34 1.07 25.4 -3.38 23.75 C-8.73 20.18 -8.73 20.18 -9.51 16.74 C-9.57 15.94 -9.63 15.14 -9.69 14.31 C-9.75 13.5 -9.82 12.7 -9.89 11.86 C-9.92 11.25 -9.96 10.63 -10 10 C-9.34 10 -8.68 10 -8 10 C-8.33 9.01 -8.66 8.02 -9 7 C-7.88 6.16 -6.75 5.33 -5.62 4.5 C-5 4.04 -4.37 3.57 -3.73 3.09 C-2 2 -2 2 0 2 C0 1.34 0 0.68 0 0 Z " fill="#FBFBFD" transform="translate(869,126)"/>
<path d="M0 0 C3.81 3.12 6.52 6.23 7.37 11.15 C7.49 15.15 7.39 18.17 5 21.5 C1.81 24.16 0.12 25.02 -3.94 25.23 C-7.6 24.82 -10.25 23.41 -13 21 C-15.47 17.52 -16.02 15.71 -15.88 11.44 C-14.63 6.54 -13.49 3.96 -9.19 1.19 C-5.71 -0.11 -3.66 -0.62 0 0 Z " fill="#D24F92" transform="translate(1016,170)"/>
<path d="M0 0 C2.97 2.52 4.76 5.29 6 9 C6.4 14.24 5.81 17.53 3 22 C-1.05 24.7 -4.24 24.89 -9 24 C-13.36 21.73 -15.6 19.23 -17.12 14.56 C-16.98 10.29 -16.1 7.72 -14 4 C-9.14 -0.5 -6.56 -1.67 0 0 Z " fill="#D24F92" transform="translate(1097,216)"/>
<path d="M0 0 C3.76 2.88 4.74 4.45 5.52 9.11 C5.92 17.32 5.92 17.32 3.93 20.95 C1.31 23.45 -1.5 24.32 -5 24.56 C-9.2 24.27 -11.83 22.8 -15 20 C-17.36 16.3 -17.16 13.11 -16.47 8.93 C-15.43 4.67 -13.85 2.58 -10.25 0.12 C-6.21 -1.27 -4.09 -1.26 0 0 Z " fill="#D24F92" transform="translate(1058,216)"/>
<path d="M0 0 C1.57 0.01 3.14 0.04 4.71 0.07 C5.51 0.08 6.31 0.09 7.14 0.1 C9.12 0.12 11.1 0.16 13.09 0.2 C13.42 1.85 13.75 3.5 14.09 5.2 C12.7 5.29 12.7 5.29 11.28 5.38 C10.08 5.46 8.88 5.55 7.65 5.63 C6.45 5.71 5.26 5.8 4.03 5.88 C1.2 5.87 1.2 5.87 0.09 7.2 C0.09 9.18 0.09 11.16 0.09 13.2 C4.05 13.53 8.01 13.86 12.09 14.2 C12.42 15.52 12.75 16.84 13.09 18.2 C12.23 18.26 11.38 18.32 10.5 18.38 C8.84 18.5 8.84 18.5 7.15 18.63 C6.05 18.71 4.94 18.8 3.81 18.88 C1.17 18.9 1.17 18.9 0.09 20.2 C0.05 22.53 0.04 24.86 0.09 27.2 C4.38 27.53 8.67 27.86 13.09 28.2 C13.42 29.52 13.75 30.84 14.09 32.2 C10.94 32.22 7.79 32.24 4.65 32.26 C3.75 32.27 2.85 32.27 1.93 32.28 C0.65 32.29 0.65 32.29 -0.66 32.29 C-1.45 32.3 -2.24 32.3 -3.06 32.31 C-4.91 32.2 -4.91 32.2 -5.91 31.2 C-6.13 27.08 -6.1 22.96 -6.1 18.84 C-6.1 16.77 -6.12 14.7 -6.14 12.63 C-6.14 11.33 -6.14 10.04 -6.14 8.7 C-6.15 7.5 -6.15 6.3 -6.16 5.07 C-5.76 0.42 -4.57 0.23 0 0 Z " fill="#D24F92" transform="translate(957.9140625,161.8046875)"/>
<path d="M0 0 C2.94 2.62 2.94 2.62 5 6 C5 8.31 5 10.62 5 13 C0.38 13.33 -4.24 13.66 -9 14 C-9.33 14.99 -9.66 15.98 -10 17 C-6.86 18.57 -3.44 18.23 0 18 C0.99 17.67 1.98 17.34 3 17 C3.66 17.33 4.32 17.66 5 18 C3.63 21.16 3.01 21.99 0 24 C-4.86 24.48 -7.04 24.51 -11.38 22.19 C-14 20 -15.77 18.41 -16.34 14.95 C-16.43 9.46 -15.77 6.28 -12 2 C-7.93 -1.41 -5.05 -1.53 0 0 Z " fill="#D24F92" transform="translate(952,216)"/>
<path d="M0 0 C0.99 0.33 1.98 0.66 3 1 C3.33 3.31 3.66 5.62 4 8 C7.02 8.14 7.02 8.14 9.88 7.19 C13 7 13 7 15.68 8.88 C18.91 13.23 18.57 16.54 18.31 21.81 C18.29 22.7 18.27 23.58 18.24 24.49 C18.19 26.66 18.1 28.83 18 31 C16.35 30.67 14.7 30.34 13 30 C12.67 24.06 12.34 18.12 12 12 C9.69 12.66 7.38 13.32 5 14 C3.48 17.04 3.63 20.28 3.44 23.62 C3.39 24.33 3.35 25.04 3.31 25.77 C3.2 27.51 3.1 29.26 3 31 C1.35 30.67 -0.3 30.34 -2 30 C-2.05 26.05 -2.09 22.1 -2.11 18.15 C-2.12 16.14 -2.15 14.13 -2.18 12.13 C-2.19 10.24 -2.19 10.24 -2.2 8.32 C-2.21 7.16 -2.22 6 -2.23 4.8 C-2 2 -2 2 0 0 Z " fill="#D24F92" transform="translate(990,208)"/>
<path d="M0 0 C2.65 -0.03 5.29 -0.05 7.94 -0.06 C8.69 -0.07 9.45 -0.08 10.22 -0.09 C12.15 -0.1 14.08 -0.05 16 0 C17 1 17 1 17.1 4.6 C17.09 6.09 17.08 7.57 17.06 9.06 C17.06 9.82 17.05 10.58 17.05 11.36 C17.04 13.24 17.02 15.12 17 17 C14.19 17.03 11.38 17.05 8.56 17.06 C7.76 17.07 6.96 17.08 6.13 17.09 C4.09 17.1 2.04 17.05 0 17 C-1 16 -1 16 -1.13 12.91 C-1.13 11.01 -1.13 11.01 -1.12 9.06 C-1.13 7.8 -1.13 6.53 -1.13 5.22 C-1 2 -1 2 0 0 Z " fill="#3F1649" transform="translate(748,128)"/>
<path d="M0 0 C2.92 1.03 3.83 1.65 5.2 4.5 C5.5 5.47 5.81 6.44 6.12 7.44 C7.19 10.75 8.06 13.08 10 16 C10.33 14.93 10.65 13.86 10.99 12.75 C11.43 11.36 11.87 9.96 12.31 8.56 C12.53 7.86 12.74 7.15 12.96 6.42 C13.55 4.58 14.27 2.79 15 1 C15.99 0.67 16.98 0.34 18 0 C18.99 0.66 19.98 1.32 21 2 C20.71 2.68 20.42 3.36 20.12 4.06 C17.23 10.89 14.55 17.76 12.06 24.74 C10.22 29.78 10.22 29.78 8 32 C4.38 32.12 4.38 32.12 1 32 C1 31.01 1 30.02 1 29 C2.32 28.34 3.64 27.68 5 27 C5.47 20.84 3.39 16.37 1.04 10.83 C-0.57 6.83 -1.42 4.17 0 0 Z " fill="#D24F92" transform="translate(1137,216)"/>
<path d="M0 0 C2.12 0.38 2.12 0.38 4 1 C4 1.99 4 2.98 4 4 C4.37 3.53 4.74 3.05 5.12 2.56 C7.79 0.34 9.55 0 13 0 C15.88 2.03 17.75 3.62 18.4 7.19 C18.49 9.75 18.44 12.26 18.31 14.81 C18.29 15.7 18.27 16.58 18.24 17.49 C18.19 19.66 18.1 21.83 18 24 C16.35 23.67 14.7 23.34 13 23 C12.94 21.87 12.88 20.74 12.82 19.57 C12.73 18.09 12.65 16.61 12.56 15.12 C12.52 14.38 12.48 13.63 12.44 12.86 C12.28 8.8 12.28 8.8 11 5 C8.56 5.19 8.56 5.19 6 6 C3.55 9.46 3.6 13.12 3.38 17.25 C3.3 18.51 3.23 19.78 3.15 21.08 C3.1 22.04 3.05 23.01 3 24 C1.35 23.67 -0.3 23.34 -2 23 C-2.06 19.54 -2.09 16.08 -2.12 12.62 C-2.14 11.64 -2.16 10.66 -2.18 9.64 C-2.18 8.7 -2.19 7.76 -2.2 6.79 C-2.21 5.92 -2.22 5.05 -2.23 4.15 C-2 2 -2 2 0 0 Z " fill="#D24F92" transform="translate(1080,170)"/>
<path d="M0 0 C2.13 1.84 2.92 3.31 3.24 6.11 C3.3 8.66 3.26 11.2 3.19 13.75 C3.17 15.08 3.17 15.08 3.15 16.44 C3.11 18.63 3.06 20.81 3 23 C1.35 22.67 -0.3 22.34 -2 22 C-2.33 16.06 -2.66 10.12 -3 4 C-5.31 4.33 -7.62 4.66 -10 5 C-11.12 8.71 -11.31 12.39 -11.56 16.25 C-11.69 18.14 -11.69 18.14 -11.82 20.08 C-11.88 21.04 -11.94 22.01 -12 23 C-13.65 22.67 -15.3 22.34 -17 22 C-17.06 18.71 -17.09 15.42 -17.12 12.12 C-17.14 11.19 -17.16 10.25 -17.18 9.29 C-17.19 7.94 -17.19 7.94 -17.2 6.57 C-17.21 5.74 -17.22 4.92 -17.23 4.06 C-17 2 -17 2 -15 0 C-14.22 0.16 -13.43 0.33 -12.62 0.5 C-10.04 1.27 -10.04 1.27 -8.06 0 C-5.04 -1.47 -3.17 -0.94 0 0 Z " fill="#D24F92" transform="translate(1032,216)"/>
<path d="M0 0 C2.44 2.44 2.44 2.44 4 5 C4 5.66 4 6.32 4 7 C-0.88 6.12 -0.88 6.12 -2 5 C-6.75 5.1 -6.75 5.1 -10.5 7.62 C-11.21 10.98 -10.75 13.68 -10 17 C-6.98 18.51 -4.33 18.18 -1 18 C-0.01 17.34 0.98 16.68 2 16 C2.66 16.33 3.32 16.66 4 17 C3.43 20.29 2.6 21.9 0 24 C-4.59 24.97 -8.26 24.36 -12.44 22.31 C-15.22 19.8 -16.25 18.65 -17 15 C-16.98 10.06 -16.22 5.88 -13 2 C-8.44 -1.11 -5.3 -1.57 0 0 Z " fill="#D24F92" transform="translate(978,216)"/>
<path d="M0 0 C1.86 0.63 1.86 0.63 4 2 C5.23 4.71 5.23 4.71 6.19 7.94 C6.51 9 6.83 10.06 7.17 11.15 C7.58 12.56 7.58 12.56 8 14 C8.33 14.99 8.66 15.98 9 17 C9.66 17 10.32 17 11 17 C11.08 16.03 11.16 15.06 11.25 14.06 C11.9 9.33 13.92 5.26 16 1 C17.32 1 18.64 1 20 1 C19.34 6.26 17.74 10.93 15.94 15.88 C15.66 16.66 15.37 17.44 15.08 18.25 C14.39 20.17 13.7 22.08 13 24 C10.19 24.31 10.19 24.31 7 24 C4.13 20.52 2.79 16.21 1.25 12 C0.8 10.8 0.35 9.61 -0.11 8.38 C-1 5.01 -1.02 3.28 0 0 Z " fill="#D24F92" transform="translate(1041,170)"/>
<path d="M0 0 C1.86 0.63 1.86 0.63 4 2 C5.23 4.71 5.23 4.71 6.19 7.94 C6.51 9 6.83 10.06 7.17 11.15 C7.58 12.56 7.58 12.56 8 14 C8.33 14.99 8.66 15.98 9 17 C9.66 17 10.32 17 11 17 C11.08 16.03 11.16 15.06 11.25 14.06 C11.91 9.39 13.67 5.09 16 1 C16.66 0.67 17.32 0.34 18 0 C18.66 0.33 19.32 0.66 20 1 C18.49 8.99 15.83 16.4 13 24 C10.19 24.31 10.19 24.31 7 24 C4.13 20.52 2.79 16.21 1.25 12 C0.8 10.8 0.35 9.61 -0.11 8.38 C-1 5.01 -1.02 3.28 0 0 Z " fill="#D24F92" transform="translate(978,170)"/>
<path d="M0 0 C0.87 0.01 1.75 0.01 2.65 0.02 C3.59 0.02 4.54 0.02 5.51 0.03 C6.5 0.03 7.5 0.04 8.52 0.05 C9.52 0.06 10.52 0.06 11.54 0.06 C14.01 0.08 16.49 0.09 18.96 0.11 C19.29 1.43 19.62 2.75 19.96 4.11 C17.91 4.34 15.86 4.57 13.81 4.8 C11.95 4.93 11.95 4.93 10.96 6.11 C10.8 7.97 10.71 9.82 10.64 11.68 C10.6 12.8 10.56 13.93 10.52 15.09 C10.48 16.27 10.44 17.46 10.4 18.68 C10.35 19.86 10.31 21.05 10.27 22.28 C10.16 25.22 10.06 28.17 9.96 31.11 C8.64 30.78 7.32 30.45 5.96 30.11 C5.63 21.86 5.3 13.61 4.96 5.11 C2.32 4.78 -0.32 4.45 -3.04 4.11 C-3.04 0.17 -3.04 0.17 0 0 Z " fill="#D24F92" transform="translate(915.041259765625,207.886474609375)"/>
<path d="M0 0 C2.44 0.56 2.44 0.56 4.25 2.62 C5.7 6.22 5.86 8.72 5.44 12.56 C4.25 15 4.25 15 2.44 16.56 C0.06 17.12 0.06 17.12 -2.56 16.56 C-5.44 14.5 -5.44 14.5 -7.56 11.56 C-7.63 7.54 -7.16 5.4 -4.81 2.12 C-2.56 0.56 -2.56 0.56 0 0 Z " fill="#FCFDFF" transform="translate(1092.5625,219.4375)"/>
<path d="M0 0 C3.06 1.3 3.75 2.85 5.06 5.88 C5.56 9.91 5.67 11.97 3.38 15.38 C1.06 16.88 1.06 16.88 -1.5 16.81 C-4.16 15.79 -5.32 15.22 -6.94 12.88 C-7.88 10.06 -7.88 10.06 -7.94 6.88 C-4.03 -0.26 -4.03 -0.26 0 0 Z " fill="#FCFDFF" transform="translate(1012.9375,174.125)"/>
<path d="M0 0 C4.66 -0.33 7.38 -0.05 11 3 C13.76 6.81 15.38 10.43 15.06 15.19 C13.81 19.69 12.85 21.35 9 24 C4.47 25.34 1.07 25.4 -3.38 23.75 C-8.73 20.18 -8.73 20.18 -9.51 16.74 C-9.57 15.94 -9.63 15.14 -9.69 14.31 C-9.75 13.5 -9.82 12.7 -9.89 11.86 C-9.92 11.25 -9.96 10.63 -10 10 C-9.34 10 -8.68 10 -8 10 C-8.33 9.01 -8.66 8.02 -9 7 C-7.88 6.16 -6.75 5.33 -5.62 4.5 C-5 4.04 -4.37 3.57 -3.73 3.09 C-2 2 -2 2 0 2 C0 1.34 0 0.68 0 0 Z M-7.38 8.81 C-8.35 12.21 -7.91 14.61 -7 18 C-4.16 21.48 -1.3 22.38 3 23.12 C5.74 23.29 7.39 23.34 9.79 22 C11.78 19.95 12.89 17.86 13.25 15.03 C13.03 11.38 12.02 8.51 9.94 5.5 C6.61 2.67 5.16 2.2 0.93 2.54 C-2.92 3.46 -5.06 5.76 -7.38 8.81 Z " fill="#3F1649" transform="translate(869,126)"/>
<path d="M0 0 C0.99 0.33 1.98 0.66 3 1 C3 11.23 3 21.46 3 32 C1.35 31.67 -0.3 31.34 -2 31 C-2.05 26.91 -2.09 22.81 -2.11 18.72 C-2.12 17.33 -2.13 15.93 -2.15 14.54 C-2.18 12.54 -2.19 10.54 -2.2 8.54 C-2.21 7.33 -2.22 6.13 -2.23 4.89 C-2 2 -2 2 0 0 Z " fill="#D24F92" transform="translate(1031,162)"/>
<path d="M0 0 C0.99 0.33 1.98 0.66 3 1 C1.59 8.85 -0.43 16.46 -2.62 24.12 C-3.11 25.85 -3.11 25.85 -3.61 27.6 C-4.4 30.4 -5.2 33.2 -6 36 C-7.32 36 -8.64 36 -10 36 C-9.33 30.81 -8.34 25.78 -7.12 20.69 C-6.95 19.94 -6.77 19.2 -6.59 18.44 C-2.82 2.82 -2.82 2.82 0 0 Z " fill="#D24F92" transform="translate(937,160)"/>
<path d="M0 0 C0.66 0.33 1.32 0.66 2 1 C1.41 8.81 -0.46 16.03 -2.56 23.56 C-2.89 24.76 -3.22 25.96 -3.56 27.2 C-4.37 30.13 -5.18 33.07 -6 36 C-7.32 36 -8.64 36 -10 36 C-9.41 28.39 -7.66 21.39 -5.56 14.06 C-5.09 12.36 -5.09 12.36 -4.62 10.62 C-2.26 2.26 -2.26 2.26 0 0 Z " fill="#D24F92" transform="translate(922,160)"/>
<path d="M0 0 C0.78 0.14 1.57 0.29 2.38 0.44 C4.64 3.83 4.62 5.09 4.56 9.06 C4.55 10.54 4.55 10.54 4.54 12.04 C4.38 14.44 4.38 14.44 3.38 15.44 C-0.47 15.8 -2.8 15.95 -6.12 13.88 C-7.62 11.44 -7.62 11.44 -7.62 7.94 C-6.31 3.33 -4.91 0.82 0 0 Z " fill="#FCFDFF" transform="translate(1053.625,219.5625)"/>
<path d="M0 0 C2 2 2 2 2.23 4.98 C2.21 6.85 2.21 6.85 2.2 8.76 C2.19 9.42 2.19 10.08 2.19 10.77 C2.18 12.89 2.15 15.01 2.12 17.12 C2.11 18.56 2.11 20 2.1 21.43 C2.08 24.96 2.04 28.48 2 32 C0.35 31.67 -1.3 31.34 -3 31 C-3.07 27.07 -3.13 23.14 -3.16 19.2 C-3.19 17.21 -3.23 15.21 -3.26 13.22 C-3.27 11.96 -3.28 10.71 -3.29 9.42 C-3.31 8.26 -3.32 7.1 -3.34 5.91 C-3 3 -3 3 -1.48 1.1 C-0.99 0.74 -0.5 0.37 0 0 Z " fill="#D24F92" transform="translate(1072,207)"/>
<path d="M0 0 C2.85 1.12 3.66 2.07 5.06 4.81 C5.59 8.37 5.77 11.63 3.88 14.81 C1.35 16.21 -0.09 16.3 -2.94 15.81 C-5.25 14.19 -5.25 14.19 -6.94 11.81 C-7.48 8.18 -7.18 6.3 -5.56 3 C-3.76 0.58 -3.05 -0.29 0 0 Z " fill="#FCFDFF" transform="translate(1115.9375,174.1875)"/>
<path d="M0 0 C2.16 1.79 2.89 3.16 3.25 5.94 C3.36 9.81 3.17 11.74 1 15 C-2.27 15.43 -4.35 15.29 -7.38 13.94 C-9 12 -9 12 -9.38 8.56 C-9.04 5.4 -8.79 3.58 -7 1 C-4.43 -0.29 -2.85 -0.35 0 0 Z " fill="#FCFDFF" transform="translate(1122,220)"/>
<path d="M0 0 C0.99 0.33 1.98 0.66 3 1 C3 8.59 3 16.18 3 24 C1.35 23.67 -0.3 23.34 -2 23 C-2.06 19.54 -2.09 16.08 -2.12 12.62 C-2.14 11.64 -2.16 10.66 -2.18 9.64 C-2.18 8.7 -2.19 7.76 -2.2 6.79 C-2.21 5.92 -2.22 5.05 -2.23 4.15 C-2 2 -2 2 0 0 Z " fill="#D24F92" transform="translate(1068,170)"/>
<path d="M0 0 C0.14 0.89 0.29 1.77 0.44 2.69 C0.91 5.47 1.43 8.23 2 11 C-2.75 9.12 -2.75 9.12 -5 8 C-5 8.99 -5 9.98 -5 11 C-5.66 11 -6.32 11 -7 11 C-8.48 8.04 -8.06 5.26 -8 2 C-4.91 0.24 -3.77 0 0 0 Z " fill="#522E5B" transform="translate(875,133)"/>
<path d="M0 0 C0.66 1.65 1.32 3.3 2 5 C-1.3 5 -4.6 5 -8 5 C-7.67 3.68 -7.34 2.36 -7 1 C-4.54 -0.23 -2.72 -0.07 0 0 Z " fill="#FCFDFF" transform="translate(950,220)"/>
</svg>
