<?xml version="1.0" standalone="no"?>
<!DOCTYPE svg PUBLIC "-//W3C//DTD SVG 20010904//EN"
 "http://www.w3.org/TR/2001/REC-SVG-20010904/DTD/svg10.dtd">
<svg version="1.0" xmlns="http://www.w3.org/2000/svg"
 width="1600.000000pt" height="458.000000pt" viewBox="0 0 1600.000000 458.000000"
 preserveAspectRatio="xMidYMid meet">
<metadata>
Created by potrace 1.16, written by Peter Selinger 2001-2019
</metadata>
<g transform="translate(0.000000,458.000000) scale(0.100000,-0.100000)"
fill="#000000" stroke="none">
<path d="M1610 2313 l0 -758 422 3 c449 3 476 5 573 54 195 99 279 346 185
543 -32 68 -95 132 -163 167 l-38 19 45 40 c25 23 58 66 75 101 28 55 31 71
31 153 0 160 -56 270 -178 352 -114 77 -117 77 -559 81 l-393 3 0 -758z m738
532 c98 -30 151 -101 152 -206 0 -69 -18 -114 -62 -156 -59 -57 -94 -63 -354
-63 -208 0 -233 2 -236 17 -2 9 -2 108 0 220 l3 203 223 0 c170 0 234 -4 274
-15z m108 -649 c84 -39 126 -108 127 -211 1 -98 -49 -170 -143 -205 -25 -10
-115 -15 -312 -18 l-278 -4 -1 209 c0 114 -2 218 -3 231 l-3 22 281 0 c275 0
282 -1 332 -24z"/>
<path d="M10825 2971 c-45 -27 -62 -51 -76 -102 -11 -42 -10 -50 10 -92 40
-83 126 -116 205 -77 58 28 86 72 86 136 0 58 -26 105 -72 134 -42 26 -113 26
-153 1z m159 -45 c32 -30 36 -39 36 -83 0 -56 -22 -93 -70 -118 -38 -20 -63
-19 -109 4 -52 27 -79 86 -62 140 17 58 61 91 121 91 41 0 54 -5 84 -34z"/>
<path d="M8630 2800 l0 -170 -95 0 -95 0 0 -95 0 -95 94 0 95 0 3 -337 c3
-336 3 -338 28 -388 66 -134 199 -195 393 -181 48 4 94 9 102 12 12 5 15 27
15 105 l0 99 -27 -7 c-16 -4 -65 -7 -110 -8 -76 0 -84 2 -120 31 -21 17 -43
46 -50 65 -8 23 -12 126 -12 322 l-1 287 160 0 161 0 -3 93 -3 92 -157 3 -158
3 0 169 0 170 -110 0 -110 0 0 -170z"/>
<path d="M9350 2860 l0 -110 110 0 110 0 0 110 0 110 -110 0 -110 0 0 -110z"/>
<path d="M3415 2641 c-58 -14 -106 -44 -150 -93 l-45 -50 0 66 0 67 -112 -3
-113 -3 -3 -525 c-1 -289 0 -529 2 -535 2 -6 47 -9 115 -7 l111 3 0 323 c0
354 4 387 59 463 20 27 49 50 87 68 51 24 66 26 138 23 45 -3 88 -8 97 -12 20
-9 26 9 35 120 l7 82 -52 11 c-57 12 -130 13 -176 2z"/>
<path d="M4055 2640 c-311 -63 -490 -373 -405 -704 25 -97 61 -165 126 -235
104 -112 223 -163 384 -165 153 -2 256 33 346 116 l44 41 0 -67 0 -66 88 -1
c48 0 97 -2 110 -5 l22 -4 0 540 0 540 -110 0 -110 0 0 -71 0 -72 -46 43
c-106 97 -288 142 -449 110z m292 -225 c154 -69 234 -244 189 -413 -46 -171
-203 -285 -372 -269 -127 12 -239 96 -285 215 -27 66 -32 200 -11 269 29 96
119 185 221 218 72 23 182 15 258 -20z"/>
<path d="M6420 2639 c-25 -5 -82 -27 -127 -49 -240 -119 -352 -415 -259 -690
33 -95 69 -155 136 -220 184 -181 518 -200 694 -39 30 27 56 49 59 49 3 0 8
-24 12 -52 11 -89 3 -83 115 -80 l100 3 -2 532 -3 532 -97 3 c-109 3 -101 9
-113 -85 -4 -29 -8 -53 -10 -53 -1 0 -19 16 -39 35 -109 103 -292 148 -466
114z m301 -223 c70 -33 132 -95 167 -166 24 -49 27 -67 27 -155 0 -87 -3 -107
-27 -157 -34 -73 -104 -142 -176 -176 -76 -36 -202 -38 -274 -5 -138 63 -209
177 -209 338 0 164 78 282 224 336 74 28 192 21 268 -15z"/>
<path d="M7782 2635 c-73 -20 -108 -40 -164 -92 l-48 -46 0 67 0 66 -110 0
-110 0 0 -537 0 -538 109 0 110 0 3 340 c3 377 3 376 72 453 46 50 122 84 206
89 128 9 231 -57 264 -168 13 -43 16 -113 16 -381 0 -180 3 -328 8 -328 4 0
53 -1 110 -3 l102 -2 0 369 c0 341 -2 374 -20 437 -38 127 -124 218 -245 260
-80 27 -231 34 -303 14z"/>
<path d="M10185 2640 c-131 -28 -225 -80 -312 -173 -76 -81 -118 -169 -138
-285 -15 -84 -15 -100 0 -182 22 -130 62 -208 155 -300 119 -119 228 -163 405
-164 90 -1 123 4 184 23 142 47 263 149 326 274 19 38 35 76 35 83 0 11 -24
14 -114 14 l-114 0 -36 -50 c-107 -149 -330 -183 -486 -75 -129 90 -177 285
-108 436 108 237 438 269 595 58 l37 -49 113 0 c89 0 113 3 113 14 0 34 -75
160 -129 215 -108 109 -228 161 -386 167 -55 2 -118 -1 -140 -6z"/>
<path d="M4900 2627 c0 -3 51 -133 178 -457 196 -500 234 -596 242 -604 12
-12 224 -10 228 2 1 5 -44 128 -102 273 -100 253 -158 400 -262 667 l-48 122
-118 0 c-65 0 -118 -1 -118 -3z"/>
<path d="M5747 2568 c-37 -88 -257 -648 -257 -654 0 -2 53 -4 118 -4 l118 0
38 98 c21 53 81 205 133 337 53 132 99 250 104 263 l9 22 -119 0 -118 0 -26
-62z"/>
<path d="M9350 2093 l0 -538 110 0 110 0 0 538 0 537 -110 0 -110 0 0 -537z"/>
<path d="M11491 2468 c-13 -51 -39 -149 -57 -218 -19 -69 -34 -128 -34 -132 0
-5 11 -8 25 -8 14 0 25 2 25 5 0 2 24 94 54 202 29 109 56 208 59 221 4 19 1
22 -22 22 -25 0 -28 -5 -50 -92z"/>
<path d="M11700 2545 c0 -8 -25 -105 -55 -215 -30 -110 -55 -205 -55 -210 0
-6 10 -10 23 -10 22 0 27 13 82 213 32 116 60 218 63 225 3 8 -6 12 -27 12
-21 0 -31 -5 -31 -15z"/>
<path d="M11917 2533 c-4 -3 -7 -93 -7 -200 l0 -193 125 0 125 0 0 25 c0 25 0
25 -95 25 l-95 0 0 60 0 59 88 3 c82 3 87 4 90 26 3 21 1 22 -87 22 l-91 0 0
60 0 60 95 0 95 0 0 30 0 30 -118 0 c-65 0 -122 -3 -125 -7z"/>
<path d="M12877 2533 c-4 -3 -7 -93 -7 -200 l0 -193 30 0 30 0 0 200 0 200
-23 0 c-13 0 -27 -3 -30 -7z"/>
<path d="M12251 2328 c23 -62 47 -129 53 -148 11 -29 19 -36 44 -38 27 -3 34
1 43 25 20 50 90 248 92 258 1 6 -11 10 -27 10 -29 0 -31 -3 -65 -107 -19 -60
-38 -108 -41 -108 -3 0 -21 48 -40 108 -34 105 -36 107 -67 110 l-33 3 41
-113z"/>
<path d="M12585 2420 c-85 -56 -87 -202 -3 -264 39 -28 114 -27 155 2 59 42
77 135 41 209 -32 66 -131 94 -193 53z m122 -52 c67 -72 11 -210 -71 -178 -53
20 -73 98 -41 160 24 46 78 55 112 18z"/>
<path d="M13004 2425 c3 -9 27 -77 54 -151 47 -133 47 -134 78 -134 32 0 32 1
77 123 25 68 49 136 53 151 6 26 5 27 -22 24 -27 -3 -31 -10 -64 -105 -19 -56
-38 -104 -41 -107 -3 -4 -22 42 -41 101 -35 106 -36 108 -68 111 -27 3 -32 1
-26 -13z"/>
<path d="M13347 2433 c-4 -3 -7 -71 -7 -150 l0 -143 30 0 30 0 0 150 0 150
-23 0 c-13 0 -27 -3 -30 -7z"/>
<path d="M13497 2433 c-4 -3 -7 -71 -7 -150 l0 -143 30 0 30 0 0 103 c0 95 2
105 23 125 28 27 68 28 90 4 14 -15 17 -40 17 -125 l0 -107 30 0 30 0 0 110
c0 117 -12 159 -49 180 -32 17 -86 12 -115 -11 l-26 -20 0 20 c0 15 -6 21 -23
21 -13 0 -27 -3 -30 -7z"/>
<path d="M13874 2421 c-35 -21 -64 -83 -64 -134 0 -18 10 -53 23 -77 17 -35
31 -47 65 -59 41 -15 45 -15 83 6 l39 21 0 -38 c0 -29 -6 -43 -22 -54 -30 -22
-70 -20 -100 3 -44 35 -92 5 -50 -31 53 -47 156 -46 204 2 l28 28 0 176 0 176
-25 0 c-20 0 -25 -5 -25 -27 l0 -27 -28 27 c-34 33 -83 36 -128 8z m125 -55
c18 -19 23 -36 23 -77 0 -45 -4 -57 -26 -76 -31 -26 -44 -28 -80 -12 -49 23
-59 126 -15 170 27 27 71 24 98 -5z"/>
<path d="M11400 1945 c0 -24 3 -25 60 -25 l60 0 0 -175 0 -175 30 0 30 0 0
175 0 175 60 0 c57 0 60 1 60 25 l0 25 -150 0 -150 0 0 -25z"/>
<path d="M12362 1773 l3 -198 28 -3 27 -3 0 96 c0 125 14 155 76 155 49 0 58
-20 62 -141 4 -107 5 -109 28 -109 l24 0 0 124 c0 120 -1 124 -26 150 -35 35
-106 37 -141 4 l-23 -21 0 71 0 72 -30 0 -30 0 2 -197z"/>
<path d="M13382 1773 l3 -198 28 -3 27 -3 0 200 0 201 -30 0 -30 0 2 -197z"/>
<path d="M11766 1848 c-77 -58 -74 -209 6 -258 59 -36 161 -20 188 29 14 27
13 28 -15 33 -16 3 -30 -1 -41 -13 -27 -30 -88 -25 -113 7 -39 49 -31 54 84
54 l105 0 0 30 c0 44 -23 93 -55 118 -38 30 -119 30 -159 0z"/>
<path d="M12086 1848 c-35 -26 -56 -74 -56 -128 0 -93 54 -150 144 -150 41 0
53 5 82 34 41 41 44 66 8 66 -16 0 -34 -10 -46 -25 -14 -18 -29 -25 -53 -25
-47 0 -75 37 -75 100 0 63 28 100 75 100 32 0 65 -21 65 -41 0 -15 53 -6 58 9
2 7 -12 28 -31 47 -31 31 -41 35 -88 35 -39 -1 -62 -7 -83 -22z"/>
<path d="M12702 1723 l3 -148 28 -3 27 -3 0 96 c0 122 15 155 70 155 50 0 55
-11 60 -132 l5 -113 28 -3 27 -3 0 120 c0 114 -1 121 -26 150 -22 26 -33 31
-72 31 -33 0 -52 -6 -69 -22 l-23 -21 0 21 c0 18 -6 22 -30 22 l-31 0 3 -147z"/>
<path d="M13086 1848 c-53 -40 -72 -131 -42 -203 32 -77 145 -101 209 -45 70
61 70 179 1 240 -29 25 -43 30 -87 30 -37 -1 -60 -7 -81 -22z m138 -50 c33
-54 26 -147 -14 -168 -63 -34 -120 9 -120 90 0 66 28 100 80 100 30 0 43 -5
54 -22z"/>
<path d="M13577 1849 c-39 -30 -57 -70 -57 -131 0 -94 53 -148 144 -148 126 0
179 182 79 270 -28 25 -42 30 -86 30 -37 -1 -60 -7 -80 -21z m131 -50 c26 -27
34 -73 22 -120 -12 -43 -33 -59 -79 -59 -43 0 -71 40 -71 100 0 63 28 100 75
100 22 0 41 -8 53 -21z"/>
<path d="M13916 1849 c-56 -44 -73 -135 -40 -205 30 -62 116 -84 168 -43 l26
20 0 -38 c0 -47 -8 -59 -44 -73 -31 -11 -62 -6 -87 17 -19 16 -72 8 -66 -11 2
-6 18 -21 37 -33 62 -43 183 -23 209 33 7 15 11 88 11 189 l0 165 -30 0 c-24
0 -30 -4 -30 -22 l0 -21 -23 21 c-31 29 -95 30 -131 1z m134 -56 c18 -23 21
-37 18 -82 -6 -62 -23 -81 -74 -81 -44 0 -74 38 -74 95 0 87 81 129 130 68z"/>
<path d="M14200 1865 c0 -3 23 -66 50 -141 28 -75 50 -146 50 -158 0 -26 -28
-56 -52 -56 -21 0 -32 -31 -16 -42 20 -13 71 1 94 26 18 20 144 341 144 367 0
5 -13 9 -29 9 -29 0 -31 -3 -67 -117 l-38 -117 -38 114 c-20 63 -38 116 -38
118 0 4 -60 2 -60 -3z"/>
</g>
</svg>
