<?xml version="1.0" standalone="no"?>
<!DOCTYPE svg PUBLIC "-//W3C//DTD SVG 20010904//EN"
 "http://www.w3.org/TR/2001/REC-SVG-20010904/DTD/svg10.dtd">
<svg version="1.0" xmlns="http://www.w3.org/2000/svg"
 width="1600.000000pt" height="588.000000pt" viewBox="0 0 1600.000000 588.000000"
 preserveAspectRatio="xMidYMid meet">
<metadata>
Created by potrace 1.16, written by Peter Selinger 2001-2019
</metadata>
<g transform="translate(0.000000,588.000000) scale(0.100000,-0.100000)"
fill="#000000" stroke="none">
<path d="M2070 2969 l0 -970 558 3 557 4 65 24 c243 89 378 274 380 519 1 181
-102 353 -257 429 l-52 26 59 54 c43 38 70 74 96 128 33 66 38 84 42 172 12
280 -139 484 -418 561 -71 20 -100 21 -552 21 l-478 0 0 -971z m980 672 c77
-40 108 -69 135 -127 53 -112 34 -236 -50 -320 -84 -84 -100 -87 -457 -92
l-308 -3 0 286 0 286 318 -3 c311 -3 318 -3 362 -27z m82 -811 c112 -42 177
-132 185 -258 9 -128 -58 -237 -175 -284 -55 -21 -71 -22 -414 -26 l-358 -4 0
296 0 296 355 0 c329 0 358 -1 407 -20z"/>
<path d="M13900 3818 c-26 -13 -57 -41 -75 -66 -25 -37 -30 -53 -30 -105 0
-75 22 -117 84 -164 37 -29 50 -33 104 -33 76 0 128 27 171 87 58 83 32 212
-55 270 -58 38 -138 43 -199 11z m177 -39 c48 -30 76 -90 71 -149 -12 -126
-154 -191 -253 -116 -46 35 -65 74 -65 132 0 55 28 107 74 135 43 27 128 26
173 -2z"/>
<path d="M13920 3650 c0 -83 1 -90 20 -90 16 0 20 7 20 30 0 23 4 30 20 30 12
0 26 -12 35 -30 9 -18 23 -30 35 -30 24 0 25 8 4 38 -14 20 -14 24 0 44 38 55
3 98 -79 98 l-55 0 0 -90z"/>
<path d="M11078 3593 l-3 -218 -122 -3 -123 -3 0 -119 0 -120 119 0 c100 0
120 -3 125 -16 4 -9 6 -190 6 -403 0 -212 2 -402 6 -421 31 -157 167 -283 336
-312 63 -10 298 -5 331 8 15 5 17 23 17 133 l0 127 -77 -13 c-144 -26 -249 1
-300 78 l-28 43 -3 388 -3 388 201 0 200 0 0 120 0 120 -200 0 -200 0 0 220 0
220 -140 0 -140 0 -2 -217z"/>
<path d="M12000 3670 l0 -140 140 0 140 0 0 140 0 140 -140 0 -140 0 0 -140z"/>
<path d="M4368 3385 c-87 -24 -162 -80 -220 -165 -17 -24 -17 -23 -17 63 l-1
87 -145 0 -145 0 0 -685 0 -685 144 0 145 0 3 438 3 437 32 67 c62 132 159
191 313 191 47 0 102 -5 123 -12 21 -7 40 -11 43 -9 5 5 33 251 29 256 -2 2
-29 10 -62 17 -72 18 -182 18 -245 0z"/>
<path d="M5180 3381 c-131 -29 -223 -82 -320 -180 -91 -92 -141 -177 -177
-296 -26 -86 -25 -345 1 -430 74 -243 226 -401 466 -481 79 -27 330 -27 410 0
87 29 164 74 224 130 l56 52 0 -88 0 -88 140 0 140 0 0 685 0 685 -140 0 -140
0 0 -92 -1 -93 -27 31 c-39 46 -118 102 -182 131 -118 53 -305 67 -450 34z
m405 -280 c286 -139 340 -535 104 -757 -58 -54 -100 -78 -183 -103 -255 -78
-512 90 -556 364 -30 186 39 367 175 460 90 62 142 76 275 72 107 -2 120 -5
185 -36z"/>
<path d="M8239 3385 c-142 -28 -305 -129 -385 -237 -103 -140 -147 -275 -148
-453 -1 -136 19 -225 80 -353 77 -161 224 -287 399 -344 59 -19 92 -22 215
-23 209 0 303 32 424 146 l65 60 5 -35 c3 -20 8 -53 12 -73 11 -78 2 -73 140
-73 l124 0 0 685 0 685 -124 0 c-138 0 -129 5 -141 -75 -3 -22 -8 -55 -11 -73
l-5 -33 -62 58 c-75 69 -166 116 -270 137 -90 19 -226 19 -318 1z m392 -283
c174 -84 280 -286 249 -475 -32 -204 -154 -342 -345 -392 -196 -51 -397 43
-490 227 -105 210 -55 464 116 595 87 66 152 84 289 80 106 -3 120 -6 181 -35z"/>
<path d="M9996 3384 c-80 -19 -171 -70 -228 -127 l-48 -48 0 81 0 80 -145 0
-145 0 0 -685 0 -685 139 0 c115 0 140 3 145 15 3 8 5 199 6 424 0 470 0 475
88 572 67 75 149 111 264 117 145 7 248 -39 311 -140 49 -81 56 -156 57 -595
l0 -393 140 0 140 0 0 449 c0 351 -3 466 -15 525 -41 215 -190 366 -406 411
-87 18 -225 18 -303 -1z"/>
<path d="M13038 3381 c-93 -21 -222 -83 -301 -146 -103 -81 -196 -232 -233
-375 -23 -87 -23 -263 0 -350 52 -204 194 -381 372 -465 127 -60 167 -68 339
-68 172 0 212 8 339 68 158 75 291 225 351 396 l14 39 -149 0 -150 0 -26 -41
c-66 -105 -165 -171 -295 -195 -238 -45 -466 99 -518 327 -13 56 -13 172 0
228 24 104 98 209 190 266 138 88 341 90 479 7 49 -31 136 -118 150 -153 l12
-29 154 0 153 0 -14 41 c-101 284 -379 471 -699 468 -50 0 -126 -9 -168 -18z"/>
<path d="M6295 3353 c3 -10 30 -79 60 -153 62 -157 165 -419 295 -750 51 -129
112 -282 135 -340 l43 -105 151 -3 c83 -1 151 0 151 3 0 4 -52 137 -225 575
-29 74 -100 254 -158 400 -58 146 -115 293 -128 327 l-24 63 -154 0 c-142 0
-153 -1 -146 -17z"/>
<path d="M7381 3307 c-41 -107 -221 -566 -281 -714 l-58 -143 153 0 c151 0
154 0 161 23 6 20 85 223 270 689 41 103 74 192 74 197 0 7 -50 11 -147 11
l-148 0 -24 -63z"/>
<path d="M12000 2685 l0 -685 140 0 140 0 0 685 0 685 -140 0 -140 0 0 -685z"/>
</g>
</svg>
