<?xml version="1.0" standalone="no"?>
<!DOCTYPE svg PUBLIC "-//W3C//DTD SVG 20010904//EN"
 "http://www.w3.org/TR/2001/REC-SVG-20010904/DTD/svg10.dtd">
<svg version="1.0" xmlns="http://www.w3.org/2000/svg"
 width="1600.000000pt" height="458.000000pt" viewBox="0 0 1600.000000 458.000000"
 preserveAspectRatio="xMidYMid meet">
<metadata>
Created by potrace 1.16, written by Peter Selinger 2001-2019
</metadata>
<g transform="translate(0.000000,458.000000) scale(0.100000,-0.100000)"
fill="#000000" stroke="none">
<path d="M1610 2315 l0 -755 421 0 c394 0 426 1 490 20 175 52 289 189 305
367 15 157 -63 304 -198 374 l-37 19 53 53 c70 70 96 137 96 251 0 96 -18 158
-68 234 -42 65 -89 105 -167 141 -98 47 -139 51 -530 51 l-365 0 0 -755z m738
530 c99 -30 152 -101 152 -204 0 -73 -12 -106 -53 -150 -63 -66 -90 -71 -363
-71 l-244 0 0 220 0 220 228 0 c176 0 240 -4 280 -15z m85 -636 c21 -5 58 -29
81 -52 99 -94 95 -265 -6 -340 -68 -50 -84 -52 -383 -52 l-280 0 -3 228 -2
227 277 0 c164 0 294 -4 316 -11z"/>
<path d="M10819 2967 c-19 -12 -45 -44 -58 -70 -22 -44 -22 -51 -11 -93 33
-116 163 -158 248 -80 77 70 67 193 -20 246 -46 28 -115 26 -159 -3z m167 -41
c32 -32 40 -57 34 -111 -5 -52 -67 -105 -121 -105 -40 0 -90 32 -109 71 -24
46 -25 70 -5 109 25 48 62 70 117 70 43 0 54 -4 84 -34z"/>
<path d="M8630 2800 l0 -170 -95 0 -95 0 0 -95 0 -95 94 0 95 0 3 -337 c3
-335 3 -338 27 -387 65 -130 206 -196 386 -182 133 10 125 3 125 117 l0 99
-27 -7 c-16 -4 -65 -7 -110 -8 -88 0 -114 11 -157 69 -20 26 -21 43 -24 332
l-3 304 159 0 159 0 -1 93 -1 92 -157 3 -158 3 0 169 0 170 -110 0 -110 0 0
-170z"/>
<path d="M9350 2860 l0 -110 110 0 110 0 0 110 0 110 -110 0 -110 0 0 -110z"/>
<path d="M3405 2636 c-66 -21 -101 -43 -144 -92 l-41 -47 0 67 0 67 -112 -3
-113 -3 -3 -532 -2 -533 115 0 115 0 0 328 c0 192 4 342 10 364 19 66 70 130
130 161 50 25 63 27 140 24 47 -2 92 -7 101 -11 19 -8 24 11 35 125 l6 75 -52
12 c-65 15 -133 14 -185 -2z"/>
<path d="M4021 2630 c-127 -34 -225 -102 -297 -209 -57 -85 -84 -171 -91 -291
-10 -182 40 -323 156 -440 195 -198 523 -213 722 -33 l39 35 0 -66 0 -66 110
0 110 0 0 535 0 535 -110 0 -110 0 0 -71 0 -72 -44 41 c-118 109 -307 148
-485 102z m334 -218 c76 -38 126 -91 162 -167 24 -52 28 -72 28 -150 0 -80 -4
-97 -31 -155 -38 -79 -99 -141 -173 -177 -48 -24 -68 -27 -146 -27 -70 0 -101
5 -137 21 -194 89 -267 344 -153 539 28 48 70 86 129 116 61 32 93 38 181 34
66 -3 92 -9 140 -34z"/>
<path d="M6455 2644 c-11 -2 -40 -10 -65 -16 -132 -32 -269 -146 -329 -270
-32 -69 -61 -192 -61 -263 0 -61 26 -184 51 -242 28 -65 99 -162 148 -201 90
-72 231 -122 346 -122 121 0 250 47 330 121 23 21 45 39 47 39 3 0 9 -21 12
-47 13 -88 6 -83 112 -83 l94 0 0 535 0 535 -94 0 c-106 0 -99 5 -111 -87 -4
-29 -9 -53 -11 -53 -3 0 -23 18 -46 40 -41 39 -109 77 -178 100 -37 12 -211
22 -245 14z m267 -228 c182 -86 251 -301 158 -492 -91 -186 -328 -249 -502
-134 -170 113 -204 397 -65 547 78 85 152 115 273 109 60 -3 94 -10 136 -30z"/>
<path d="M7781 2634 c-67 -18 -113 -45 -168 -98 l-43 -40 0 67 0 67 -110 0
-110 0 0 -535 0 -535 110 0 110 0 0 325 c0 303 1 328 21 379 80 215 408 238
515 36 17 -32 19 -66 22 -387 l3 -353 110 0 109 0 0 368 c0 333 -2 373 -19
430 -22 72 -70 151 -113 188 -105 88 -295 126 -437 88z"/>
<path d="M10153 2631 c-39 -10 -97 -31 -130 -47 -75 -37 -199 -160 -235 -234
-153 -312 -7 -677 315 -785 151 -50 313 -41 456 28 87 41 211 162 245 238 48
107 54 99 -76 99 l-114 0 -37 -49 c-72 -97 -183 -148 -307 -139 -180 13 -309
146 -319 326 -4 91 17 169 64 234 140 192 452 181 576 -19 l21 -33 114 0 c90
0 114 3 114 14 0 7 -16 46 -36 85 -113 226 -390 346 -651 282z"/>
<path d="M4900 2627 c0 -2 41 -107 91 -233 49 -126 108 -274 129 -329 21 -55
74 -190 118 -300 l79 -200 117 -3 c70 -2 116 1 116 7 0 5 -42 117 -94 248
-238 602 -304 770 -310 791 -7 21 -12 22 -127 22 -65 0 -119 -1 -119 -3z"/>
<path d="M5791 2621 c-24 -6 -38 -38 -248 -576 l-51 -130 110 -3 c61 -1 115 1
120 6 4 4 46 107 93 227 47 121 90 229 95 240 17 35 90 229 90 237 0 9 -174 9
-209 -1z"/>
<path d="M9350 2095 l0 -535 110 0 110 0 0 535 0 535 -110 0 -110 0 0 -535z"/>
<path d="M11511 2528 c-5 -18 -24 -87 -41 -153 -18 -66 -38 -140 -45 -165 -22
-72 -22 -93 -3 -96 10 -1 20 1 22 4 2 4 25 84 51 177 25 94 52 191 60 218 14
47 14 47 -10 47 -18 0 -26 -8 -34 -32z"/>
<path d="M11705 2548 c-2 -7 -13 -47 -24 -88 -41 -158 -82 -311 -87 -324 -6
-16 18 -27 35 -17 7 4 28 68 47 142 20 74 46 171 58 217 l24 82 -25 0 c-13 0
-26 -6 -28 -12z"/>
<path d="M11910 2335 l0 -195 125 0 125 0 0 25 c0 25 0 25 -95 25 l-95 0 0 65
0 65 85 0 c78 0 85 2 85 20 0 18 -7 20 -85 20 l-85 0 0 65 0 65 95 0 c88 0 95
1 95 20 0 19 -7 20 -125 20 l-125 0 0 -195z"/>
<path d="M12880 2335 l0 -195 25 0 25 0 0 195 0 195 -25 0 -25 0 0 -195z"/>
<path d="M12601 2422 c-71 -36 -98 -115 -66 -197 36 -97 150 -118 222 -43 23
24 28 39 31 96 4 80 -18 125 -73 148 -45 18 -73 18 -114 -4z m94 -38 c24 -10
45 -58 45 -104 0 -33 -6 -48 -29 -71 -34 -33 -69 -37 -102 -10 -34 27 -40 125
-9 164 21 27 58 35 95 21z"/>
<path d="M13600 2429 c-14 -5 -31 -17 -37 -26 -12 -15 -13 -15 -13 5 0 18 -6
22 -30 22 l-31 0 3 -142 3 -143 28 -3 27 -3 0 105 c0 119 13 146 69 146 53 0
61 -19 61 -141 l0 -109 30 0 30 0 0 104 c0 127 -11 163 -56 182 -38 16 -49 16
-84 3z"/>
<path d="M13888 2429 c-34 -13 -66 -63 -69 -109 -6 -78 0 -101 35 -136 29 -29
41 -34 80 -34 34 0 51 5 63 20 27 31 36 24 30 -26 -6 -56 -13 -64 -66 -71 -33
-5 -48 -1 -70 15 -20 14 -32 17 -44 10 -25 -13 -21 -26 16 -48 39 -24 125 -27
166 -6 44 23 51 52 51 226 l0 160 -25 0 c-18 0 -25 -5 -25 -20 0 -25 -7 -25
-28 0 -20 24 -76 34 -114 19z m102 -49 c24 -13 43 -73 36 -114 -14 -73 -83
-100 -131 -51 -33 32 -35 110 -4 149 22 28 64 35 99 16z"/>
<path d="M12220 2426 c0 -2 23 -66 50 -142 28 -76 50 -139 50 -141 0 -2 13 -3
29 -3 28 0 31 4 74 123 66 180 64 169 30 165 -26 -3 -30 -10 -63 -110 -19 -60
-37 -108 -40 -108 -3 0 -21 50 -40 110 -33 105 -36 110 -62 110 -16 0 -28 -2
-28 -4z"/>
<path d="M13055 2288 c51 -137 55 -143 83 -146 27 -3 30 0 51 60 13 35 36 98
52 141 16 43 29 81 29 83 0 2 -13 4 -28 4 -26 0 -30 -5 -56 -87 -50 -155 -44
-152 -85 -28 -36 106 -39 110 -68 113 l-31 3 53 -143z"/>
<path d="M13342 2288 l3 -143 28 -3 27 -3 0 145 0 146 -30 0 -31 0 3 -142z"/>
<path d="M11400 1945 c0 -24 3 -25 60 -25 l60 0 0 -170 0 -170 30 0 30 0 0
170 0 170 60 0 c57 0 60 1 60 25 l0 25 -150 0 -150 0 0 -25z"/>
<path d="M12370 1775 l0 -195 25 0 c25 0 25 0 25 99 0 116 13 142 69 143 57 2
71 -26 71 -143 0 -99 0 -99 25 -99 l25 0 0 116 c0 115 0 116 -30 146 -28 28
-36 30 -78 25 -31 -3 -52 -12 -64 -27 -18 -22 -18 -21 -18 54 0 74 -1 76 -25
76 l-25 0 0 -195z"/>
<path d="M13390 1775 l0 -195 25 0 25 0 0 195 0 195 -25 0 -25 0 0 -195z"/>
<path d="M11788 1859 c-35 -13 -66 -64 -74 -121 -17 -120 88 -201 201 -154 29
12 55 41 55 60 0 13 -48 5 -60 -9 -8 -10 -30 -15 -61 -15 -38 0 -51 4 -63 22
-9 12 -16 30 -16 40 0 16 11 18 100 18 l100 0 0 43 c0 56 -18 88 -60 109 -38
20 -80 22 -122 7z"/>
<path d="M12108 1857 c-51 -23 -73 -64 -73 -137 0 -76 21 -115 72 -136 76 -32
173 4 173 65 0 19 -45 12 -58 -9 -9 -14 -23 -20 -51 -20 -46 0 -65 15 -81 66
-22 65 25 144 86 144 8 0 26 -11 40 -25 25 -25 64 -34 64 -14 0 59 -100 98
-172 66z"/>
<path d="M12710 1725 l0 -145 25 0 c25 0 25 0 25 99 0 115 14 144 69 144 54 0
65 -21 68 -131 1 -53 3 -100 3 -104 0 -5 12 -8 26 -8 l26 0 -4 121 c-3 119 -3
121 -32 146 -25 21 -37 24 -75 20 -30 -3 -51 -12 -63 -27 l-18 -22 0 26 c0 21
-5 26 -25 26 l-25 0 0 -145z"/>
<path d="M13102 1855 c-22 -10 -39 -28 -52 -57 -63 -139 44 -269 175 -214 49
21 75 68 75 136 0 118 -92 181 -198 135z m99 -35 c48 -26 63 -112 29 -167 -17
-28 -26 -33 -57 -33 -43 0 -56 6 -71 36 -19 37 -21 75 -6 114 21 51 64 72 105
50z"/>
<path d="M13592 1855 c-38 -17 -72 -80 -72 -135 0 -59 34 -118 77 -136 101
-43 193 23 193 136 0 116 -94 180 -198 135z m100 -36 c23 -13 48 -67 48 -106
0 -15 -9 -43 -20 -60 -17 -29 -25 -33 -64 -33 -59 0 -76 23 -76 103 0 48 4 62
25 82 26 27 54 31 87 14z"/>
<path d="M13934 1860 c-79 -32 -98 -186 -30 -249 36 -34 100 -39 136 -12 l30
21 5 -23 c20 -77 -84 -127 -145 -72 -20 19 -52 9 -48 -14 5 -24 67 -51 118
-51 54 0 106 29 120 66 6 14 10 97 10 185 l0 159 -25 0 c-20 0 -25 -5 -25 -25
0 -14 -2 -25 -5 -25 -2 0 -15 11 -29 25 -26 26 -70 32 -112 15z m113 -52 c36
-30 34 -138 -3 -169 -26 -22 -84 -16 -105 10 -22 27 -26 116 -6 142 28 36 82
44 114 17z"/>
<path d="M14210 1856 c0 -8 22 -76 50 -151 47 -130 49 -139 34 -166 -10 -20
-22 -29 -38 -29 -20 0 -36 -16 -36 -36 0 -2 17 -4 38 -4 70 0 72 4 171 280 41
115 41 115 11 115 -23 0 -28 -9 -62 -108 -20 -60 -38 -111 -41 -114 -3 -2 -22
48 -43 111 -34 104 -40 116 -61 116 -13 0 -23 -6 -23 -14z"/>
</g>
</svg>
